<svg width="468" height="469" viewBox="0 0 468 469" xmlns="http://www.w3.org/2000/svg">
<path d="M204.45 168C209.28 159.65 216.31 155.17 225.4 153.6C226.51 153.41 228.28 152.68 228.41 151.95C229.58 145.78 230.68 139.58 231.35 133.34C232.64 121.28 229.97 109.78 225.48 98.69C215.98 75.24 197.24 61.88 174.76 52.74C174.13 52.48 172.64 53.14 172.19 53.8C165.23 63.98 161.26 75.3 159.63 87.48C159.42 89.08 159.82 89.81 161.62 90.36C168.22 92.37 175.01 94.11 181.22 97.04C198.35 105.13 204.9 121.35 197.87 138.68C192.33 152.34 188.02 166.09 187.85 181C187.78 186.75 183.3 190.48 177.52 191C171.44 191.54 165.25 191.68 159.34 193.02C151.18 194.87 143.18 197.52 135.21 200.13C123.67 203.91 113.75 201.08 104.9 193.29C98.21 187.41 95.11 179.53 92.91 171.21C91.79 166.97 90.84 162.68 89.81 158.38C76.14 159.92 63.7 164.03 52.7 172.14C56.88 183.49 62.26 193.9 69.5 203.22C85.33 223.58 106.61 232.05 131.95 230.93C137.36 230.69 142.71 228.91 148.12 228.7C152.95 228.51 154.99 226.52 155.26 221.97C155.32 221 155.86 220.04 156.22 219.09C158.61 212.84 162.87 208.24 168.65 204.99C168.58 205.47 168.34 205.82 168.11 206.17C163.66 213.15 161.68 220.57 163.38 228.9C163.9 231.45 163.93 234.28 163.42 236.83C161.73 245.15 163.66 252.58 168.11 259.56C168.46 260.11 168.71 260.72 169.27 261.83C159.88 256.25 155.33 248.27 154.02 238.34C151.29 237.96 148.82 237.62 146.35 237.29C137.66 236.12 129.09 234.11 120.16 235.33C106.28 237.24 93.19 241.21 82.04 249.91C67.69 261.11 59.43 276.54 53.2 293.22C52.97 293.84 53.67 295.35 54.33 295.69C59.5 298.34 64.59 301.32 70.05 303.2C76.34 305.37 82.99 306.52 89.44 308.1C90.9 302.12 92.06 296.8 93.51 291.58C96.2 281.94 101.01 273.74 109.74 268.22C119.29 262.19 129.07 262.44 139.13 266.73C151.2 271.89 163.67 275.3 176.93 275.58C183.5 275.72 187.58 280.5 188.04 287.12C188.48 293.38 188.56 299.82 190.15 305.82C192.45 314.52 195.74 322.99 199.02 331.4C202.85 341.2 201.12 350.04 195.39 358.43C189.94 366.41 181.99 370.69 172.99 373.33C168.52 374.64 164 375.81 159.4 377.06C160.82 391.15 165.66 403.69 173.89 415.28C178.58 413.09 183.23 411.24 187.57 408.83C203.09 400.23 216.39 389.31 223.86 372.63C229.5 360.05 232.82 346.97 231.36 333.07C230.72 327.01 229.55 321.01 228.44 315.01C228.31 314.31 227.07 313.42 226.24 313.29C217.47 311.92 210.41 307.88 205.43 300.43C205.13 299.98 204.97 299.43 204.53 298.43C205.38 298.94 205.7 299.11 206 299.31C212.62 303.73 219.67 305.84 227.79 304.51C231.71 303.87 235.85 304.56 239.88 304.48C243.81 304.4 247.86 304.64 251.63 303.75C255.37 302.87 258.83 300.75 262.2 299.27C259.55 304.87 252.78 311.72 239.38 313.51C227.41 357.8 246.84 397.83 294.28 414.76C302.14 403.33 307.02 390.81 308.24 376.85C306.98 376.54 305.98 376.37 305.03 376.05C298.39 373.84 291.46 372.26 285.2 369.26C269.68 361.82 263.63 346.07 269.44 329.99C271.57 324.09 273.88 318.25 275.86 312.29C278.68 303.78 278.96 294.86 279.74 286.02C280.33 279.36 284.41 275.9 291.04 275.38C296.56 274.95 302.19 274.65 307.51 273.26C316.06 271.03 324.38 267.92 332.8 265.23C337.87 263.61 342.99 262.65 348.32 264.1C360.01 267.29 367.88 274.81 372.07 285.91C374.69 292.86 376.35 300.17 378.52 307.57C378.57 307.57 379.03 307.7 379.46 307.64C389.41 306.33 399.06 303.96 407.98 299.19C412.947 296.537 414.367 292.64 412.24 287.5C412.2 287.41 412.19 287.32 412.15 287.24C405.49 272.52 397.68 258.58 384.22 248.88C369.97 238.61 353.76 234.37 336.37 235.03C329.38 235.29 322.45 236.95 315.49 237.87C313.89 238.08 313.32 238.8 313.12 240.32C312.9 241.96 312.48 243.59 311.96 245.16C309.65 252.05 305.41 257.35 298.97 260.85C299.25 259.87 299.73 259.04 300.2 258.2C303.62 252.09 305.68 245.78 304.41 238.57C303.85 235.37 303.81 231.9 304.38 228.71C305.81 220.77 303.99 213.68 299.81 207.01C299.43 206.4 299.11 205.74 298.38 204.41C306.73 209.67 311.62 216.31 313.14 225.24C313.49 227.33 314.31 228.23 316.53 228.22C318.63 228.22 320.76 228.61 322.84 229.04C333.34 231.22 343.83 232.15 354.48 229.84C368.68 226.77 381.7 221.43 391.95 210.76C400.84 201.5 407.11 190.52 412.16 178.8C413.13 176.55 413.97 174.24 414.87 171.97C403.48 164.28 391.3 159.73 377.9 158.4C376.66 163.4 375.63 168.18 374.28 172.88C371.88 181.28 368.22 189.01 361.23 194.67C351.38 202.64 340.55 203.67 328.93 199.08C316.18 194.05 302.97 191.24 289.23 190.86C284.54 190.73 280.62 187.09 279.85 182.47C279.5 180.38 279.49 178.23 279.23 176.12C278.57 170.81 278.45 165.33 277.04 160.22C274.81 152.15 271.7 144.32 268.95 136.4C267.11 131.1 265.89 125.75 267.34 120.11C270.39 108.26 278.01 100.39 289.06 95.85C294.59 93.58 300.41 91.99 306.16 90.32C307.94 89.8 308.31 89.01 308.08 87.39C306.32 75.33 302.33 64.13 295.53 53.96C294.58 52.54 293.92 52.2 292.25 52.87C283.88 56.22 276.04 60.49 268.67 65.67C247.18 80.78 236.65 101.85 235.95 127.72C235.74 135.65 237.86 143.64 238.88 151.6C239.07 153.13 239.97 153.5 241.33 153.61C246.83 154.08 251.79 156.07 255.88 159.74C258.45 162.05 260.57 164.87 262.9 167.46L262.24 168.06C261.78 167.78 261.31 167.52 260.86 167.22C253.82 162.63 246.28 160.84 237.87 162.36C234.86 162.9 231.61 162.66 228.54 162.26C223.58 161.61 218.73 161.57 214.06 163.45C210.93 164.72 207.93 166.33 204.47 167.98L204.45 168Z" fill="fff"/>
<path d="M120.9 341.34C125.45 315.84 138.99 297.37 160.11 283.92C157.04 283.42 153.87 283.27 150.95 282.34C144.54 280.31 138.26 277.91 131.93 275.63C120.15 271.37 107.43 278.05 104.58 290.32C102.99 297.14 101.64 304.05 100.76 310.99C98.57 328.2 98.19 345.51 98.49 362.84C98.52 364.85 98.83 366.85 99.03 369.01C101.48 369.17 103.7 369.49 105.9 369.43C115.25 369.16 124.59 368.91 133.93 368.4C147.34 367.67 160.57 365.6 173.58 362.28C187.77 358.66 193.73 346 187.85 332.66C185.14 326.51 182.73 320.22 180.55 313.86C179.48 310.74 179.23 307.33 178.59 303.97C164.61 324.24 146.11 337.19 120.91 341.35L120.9 341.34Z" fill="fff"/>
<path d="M288.74 303.94C288.21 307.02 288.08 309.87 287.2 312.46C284.63 320.05 282.16 327.72 278.92 335.03C273.85 346.48 283.59 359.97 292.42 361.7C299.93 363.18 307.39 364.98 314.94 366.2C331.07 368.79 347.33 369.76 363.66 369.42C365.47 369.38 367.27 369.08 369.12 368.89C369.2 367.72 369.33 366.89 369.31 366.07C368.76 349.41 368.63 332.72 367.44 316.1C366.79 307.04 364.88 297.96 362.57 289.15C359.69 278.19 347.22 271.55 337.05 275.04C327.25 278.4 317.96 283.39 306.44 283.49C317.63 290.1 326.39 298.07 333.3 308C340.21 317.94 345.14 328.7 346.66 340.99C330.72 339.65 305.58 328.94 288.76 303.96L288.74 303.94Z" fill="fff"/>
<path d="M307 182.56C310.69 183.06 314.26 183.15 317.59 184.08C323.79 185.81 329.85 188.06 335.98 190.05C347.65 193.86 359.76 187.37 362.78 175.44C364.32 169.36 365.58 163.19 366.44 156.98C369.04 138.23 369.58 119.35 369.28 100.44C369.24 97.81 368.39 96.82 365.76 96.9C357.06 97.16 348.34 97.05 339.65 97.5C323.92 98.33 308.38 100.54 293.22 104.97C280.19 108.78 274.32 121.42 279.46 133.87C282.31 140.76 284.76 147.81 287.21 154.86C288.01 157.16 288.2 159.67 288.7 162.26C307.38 133.52 333.9 123.5 346.46 122.78C342.22 148.68 328.21 167.94 307 182.54V182.56Z" fill="fff"/>
<path d="M160.85 182.86C138.61 168.24 125.11 148.73 121.18 122.39C133.64 124.53 144.33 129.46 154.13 136.43C163.99 143.44 172.09 152.19 178.83 162.47C179.26 160 179.35 157.82 180.05 155.84C182.66 148.46 185.26 141.07 188.26 133.84C193.23 121.87 187.3 108.7 174.83 105.13C150.95 98.29 126.49 96.34 101.75 96.93C99.13 96.99 98.56 98.19 98.52 100.49C98.04 124.7 98.93 148.79 103.95 172.6C105.91 181.87 111.3 187.67 120.12 190.53C125.73 192.35 130.86 190.33 135.98 188.4C143.77 185.46 151.6 182.71 160.83 182.85L160.85 182.86Z" fill="fff"/>
<path d="M183.45 427.07C185.72 430.16 187.93 433.11 190.08 436.1C198.26 447.52 208 457.23 220.23 464.36C229.07 469.51 237.77 469.82 246.78 464.85C257.84 458.75 266.94 450.49 274.47 440.43C277.76 436.04 280.91 431.55 284.16 427.07C250.69 409.38 246.18 405.14 233.68 379.53C229.96 391.39 223.43 401.08 213.97 408.72C204.73 416.18 194.79 422.53 183.45 427.07Z" fill="fff"/>
<path d="M427.21 284.05C430.19 281.7 433.27 279.21 436.42 276.81C446.75 268.94 455.53 259.74 462.48 248.66C469.32 237.76 469.33 227.35 461.97 216.87C461.76 216.57 461.56 216.25 461.37 215.94C452.77 201.74 439.83 192.01 427.3 182.57C423.01 190.32 418.91 198.18 414.39 205.78C406.87 218.42 396.54 227.86 382.35 232.61C382.07 232.7 381.84 232.92 381.43 233.17C402.62 241.4 408.74 251.24 417.97 266.2C421.44 271.82 424.08 277.95 427.21 284.05Z" fill="fff"/>
<path d="M40.62 182.47C37.38 184.97 34.11 187.52 30.81 190.02C19.87 198.33 10.48 208 3.74 220.13C-0.929996 228.53 -0.989995 236.72 3.49 245.18C9.71 256.92 18.33 266.55 28.72 274.7C32.69 277.81 36.67 280.92 40.76 284.12C45.2 272.76 51.12 262.68 58.24 253.27C65.54 243.63 75.15 237.27 86.23 233.5C80.8 230.5 75.16 227.95 70.14 224.5C60.68 218.01 54.65 208.47 49 198.77C45.96 193.55 43.44 188.02 40.6 182.47H40.62Z" fill="fff"/>
<path d="M283.79 40.06C280.75 36.14 277.76 32.27 274.75 28.41C266.76 18.14 257.45 9.42001 245.9 3.22001C238.24 -0.88999 230.64 -1.01999 222.81 2.80001C205.83 11.08 194.37 25.07 183.65 40.17C194.73 44.96 204.72 51.21 213.97 58.65C223.41 66.25 229.92 75.89 233.8 88.05C241.97 62.64 262.19 50.89 283.79 40.06Z" fill="fff"/>
<path d="M319.91 87.15C335.61 84.05 351.15 81.95 367.12 82.5C365.33 73.72 362.42 65.74 357.28 58.66C352.4 51.93 346.28 47.07 338.04 45.01C331.95 43.49 325.89 43.85 319.86 44.87C314.66 45.75 309.55 47.16 303.82 48.47C314.01 59.77 317.53 73.1 319.91 87.15Z" fill="fff"/>
<path d="M147.78 87.13C150.01 72.99 153.48 59.77 163.25 48.92C162.56 48.58 162.19 48.31 161.79 48.22C155.39 46.84 149.05 45.05 142.58 44.22C133.55 43.06 125.02 45.01 117.75 50.77C109.3 57.47 104.56 66.55 101.83 76.8C101.35 78.61 101 80.46 100.52 82.59C116.69 81.89 132.13 84.24 147.8 87.12L147.78 87.13Z" fill="fff"/>
<path d="M303.91 418.4C310.14 419.55 315.52 420.76 320.96 421.5C331.95 423.01 342.42 421.86 351.26 414.29C358.06 408.47 362.21 400.91 364.92 392.5C365.83 389.68 366.51 386.78 367.35 383.7C351.05 384.3 335.55 382.12 319.94 379.41C317.78 393.61 314.19 406.88 303.91 418.4Z" fill="fff"/>
<path d="M100.6 383.79C101.97 390.96 104.29 397.53 107.95 403.57C113.22 412.26 120.27 418.97 130.51 421.08C141.54 423.36 152.28 420.9 163.46 418.16C153.47 407 150.03 393.58 147.77 379.56C132.11 382.26 116.57 384.27 100.6 383.79Z" fill="fff"/>
<path d="M83.57 100.31C83.57 100.31 83.02 100.21 82.52 100.33C74.43 102.18 66.86 105.23 60.1 110.14C53.2 115.15 48.17 121.57 46.38 129.98C44.09 140.8 46.17 151.35 49.11 162.14C59.99 151.74 73.52 148.62 87.03 146.59C85.86 130.97 84.72 115.7 83.57 100.31Z" fill="fff"/>
<path d="M380.61 146.7C394.29 148.17 407.4 152.19 418.72 162.34C419.93 155.66 421.29 149.91 421.97 144.07C423.34 132.23 420.44 121.65 411.5 113.26C405.67 107.78 398.7 104.25 391.1 101.92C388.67 101.18 386.19 100.63 384.24 100.12C383.03 115.69 381.84 130.95 380.61 146.69V146.7Z" fill="fff"/>
<path d="M86.99 319.33C73.35 317.71 59.98 314.35 48.79 304.3C48.06 307.52 47.44 309.99 46.95 312.5C45.56 319.61 44.63 326.77 45.87 333.98C49.28 353.83 70.88 363.94 83.45 365.9C84.62 350.51 85.79 335.07 86.99 319.33Z" fill="fff"/>
<path d="M380.73 319.42C381.95 335.14 383.14 350.5 384.34 366.06C384.08 366.04 384.47 366.18 384.78 366.08C388.73 364.82 392.8 363.83 396.57 362.17C412.07 355.37 424 343.79 422.09 323.04C421.53 316.94 420.24 310.91 419.15 304.03C407.72 314.61 394.37 317.8 380.73 319.42Z" fill="fff"/>
<path d="M343.44 125.52C317.08 138.47 296.21 155.67 285.67 183.7C286.71 183.7 287.08 183.75 287.43 183.69C288.06 183.57 288.68 183.4 289.3 183.22C298.34 180.57 306.14 175.74 313.14 169.54C326.66 157.59 335.65 142.51 343.44 125.53V125.52Z" fill="fff"/>
<path d="M180.9 184.21L181.48 183.1C171.08 155.69 150.25 138.59 124.5 126.21C128.14 133.77 131.81 141.3 136.18 148.4C144.53 161.97 155.54 172.92 169.97 180.03C173.45 181.75 177.24 182.83 180.89 184.21H180.9Z" fill="fff"/>
<path d="M286.3 282.78L285.84 283.7C296.05 311.01 317.88 326.02 343.49 337.87C342.8 336.29 342.46 335.13 341.85 334.15C336.96 326.23 332.5 317.98 326.97 310.54C318.87 299.65 308.73 290.9 295.94 285.73C292.83 284.48 289.52 283.75 286.29 282.78H286.3Z" fill="fff"/>
<path d="M124.43 337.81C149.91 326.09 171.28 310.73 181.61 283.44C163.71 284.45 137.7 306.34 124.43 337.81Z" fill="fff"/>
<path d="M238.68 245.53C242.96 250.47 247.28 255.36 251.49 260.35C254.59 264.02 257.56 267.8 260.54 271.58C262.82 274.48 264.45 277.69 264.03 281.51C263.45 286.8 259.81 290.88 255.21 291.59C249.76 292.44 244.68 289.76 242.61 284.3C241.46 281.25 241.02 277.87 240.66 274.6C239.67 265.69 238.89 256.77 238.05 247.85C237.99 247.21 238.05 246.56 238.05 245.92L238.69 245.53H238.68Z" fill="fff"/>
<path d="M237.74 220.99C238.03 217.33 238.25 213.66 238.64 210.01C239.51 201.92 240.21 193.8 241.5 185.77C242.35 180.51 245.51 176.52 251.03 175.4C259.53 173.68 266.24 181.75 263.25 190.03C262.51 192.07 261.31 194.05 259.93 195.74C253.18 203.97 246.3 212.1 239.45 220.25C239.16 220.59 238.8 220.86 238.47 221.17L237.74 220.99Z" fill="fff"/>
<path d="M228.89 221.35C225.31 217.27 221.65 213.26 218.17 209.1C214.26 204.41 210.46 199.62 206.7 194.8C203.53 190.74 202.28 186.21 204.5 181.32C207.86 173.92 217.69 173.02 222.88 179.45C225.79 183.05 226.3 187.36 226.76 191.68C227.75 200.88 228.62 210.09 229.53 219.29C229.58 219.84 229.53 220.39 229.53 220.95L228.89 221.36V221.35Z" fill="fff"/>
<path d="M221.63 238.26C218.89 240.81 216.22 243.45 213.39 245.89C207.57 250.9 201.74 255.91 195.76 260.71C192.36 263.44 188.36 264.47 184.03 263.12C179.87 261.82 176.92 258.02 176.58 253.69C176.23 249.18 179.16 244.23 183.93 242.29C186.71 241.16 189.77 240.54 192.77 240.18C202.21 239.06 211.68 238.18 221.14 237.21L221.64 238.25L221.63 238.26Z" fill="fff"/>
<path d="M229.44 245.95C228.97 250.89 228.53 255.84 228.01 260.78C227.31 267.4 226.65 274.02 225.78 280.62C225.03 286.29 220.38 291.07 215.52 291.6C211.05 292.09 207.5 290.57 205.08 286.76C202.48 282.67 202.76 278.42 205.16 274.43C206.86 271.59 208.99 268.99 211.1 266.42C216.33 260.06 221.66 253.78 226.93 247.45C227.46 246.81 227.88 246.08 228.35 245.4L229.44 245.96V245.95Z" fill="fff"/>
<path d="M246.29 237.39C251.52 237.85 256.75 238.22 261.97 238.79C267.93 239.44 273.91 240.05 279.82 241.04C285.68 242.02 290.43 246.79 290.87 251.65C291.26 255.85 289.8 259.36 286.29 261.72C282.53 264.25 278.38 264.4 274.49 262.19C271.54 260.52 268.8 258.4 266.2 256.22C260.53 251.47 254.98 246.58 249.43 241.7C248.2 240.62 247.15 239.33 246.02 238.14L246.3 237.4L246.29 237.39Z" fill="fff"/>
<path d="M221.34 229.25C213.46 228.44 205.57 227.68 197.7 226.82C194.13 226.43 190.53 226.06 187.01 225.33C180.56 223.99 175.77 218.03 176.48 212.61C177.55 204.54 186.24 200.37 193.58 204.76C197.51 207.11 201.05 210.18 204.56 213.17C209.63 217.48 214.51 222.02 219.51 226.41C220.27 227.08 221.25 227.48 222.13 228.01L221.33 229.26L221.34 229.25Z" fill="fff"/>
<path d="M245.87 228.68C246.54 227.96 247.15 227.16 247.89 226.52C255.72 219.74 263.52 212.93 271.42 206.25C274.78 203.41 278.78 202.34 283.09 203.47C287.42 204.61 290.09 207.62 290.84 211.98C291.71 217.05 289.41 221.04 285.05 223.24C281.93 224.81 278.29 225.63 274.79 226.11C265.28 227.4 255.72 228.32 246.18 229.39L245.88 228.69L245.87 228.68Z" fill="fff"/>
<path d="M234.03 443.07C230.68 429.93 228.78 416.79 233.92 403.66C239.69 416.78 237.3 429.92 234.03 443.07Z" fill="fff"/>
<path d="M443.08 233.06C430.17 236.75 417.3 238.14 404.39 233.33C417.24 228.11 430.18 229.37 443.08 233.06Z" fill="fff"/>
<path d="M24.31 233.08C37.32 229.44 50.32 228.08 63.29 233.26C50.27 238.18 37.29 236.71 24.31 233.08Z" fill="fff"/>
<path d="M233.45 64.51C229.09 50.94 230.29 37.89 233.58 24.46C237.96 30.66 239.04 58.19 233.45 64.51Z" fill="fff"/>
</svg>
