<svg id="mandala1" width="485" height="564" viewBox="0 0 485 564" xmlns="http://www.w3.org/2000/svg">
  
<path d="M108.32 249.42C109.23 248.92 110.26 248.57 111.01 247.9C112.94 246.16 114.74 244.28 116.6 242.46L117.31 243.09C115.38 245.39 113.44 247.68 111.29 250.24C113.45 251.43 115.46 252.53 117.57 253.69C114.97 256.68 112.46 259.55 109.71 262.71L118.12 266.35C116.79 270.56 115.51 274.6 114.19 278.79H126.68L122.79 290.2H133.55C133.84 293.38 134.15 296.92 134.52 300.98C138.23 299.65 141.47 298.5 145.14 297.19V306.86C148.72 305.8 151.74 304.9 155.06 303.91C156.02 306.27 157.05 308.83 158.24 311.77C161.45 309.96 164.55 308.21 167.87 306.34C168.81 308.6 169.87 311.16 171.11 314.16C173.45 312.38 175.64 310.72 177.83 309.05L178.21 309.42C175.93 311.61 173.64 313.79 171.36 315.98L171.54 316.79L183.96 315.61L184.13 316.12C178.61 317.83 173.15 319.74 167.57 321.19C161.84 322.68 156.03 324.3 150.17 324.77C144.36 325.24 138.43 324.35 133.34 324.1C135.92 326.1 139.45 328.7 142.83 331.48C153.33 340.12 162.66 349.64 167.59 362.77C170.47 370.44 172.18 378.34 172.35 386.44C172.54 395.62 176.66 402.46 184.04 407.15C189.4 410.56 195.42 412.93 200.95 415.66C193.5 415.85 186.3 413.93 179.55 408.56C187.06 427.18 217.73 439.54 242.8 421.07C265.2 438.08 296.21 429.91 306.12 408.71C299.24 413.77 292.01 415.92 283.96 415.22C286.76 414.21 289.58 413.27 292.35 412.17C300.05 409.1 306.66 404.7 310.78 397.17C313.48 392.23 313.03 386.76 313.66 381.48C315.5 366.08 321.15 352.39 332.27 341.45C338.23 335.58 344.97 330.5 351.37 325.08C352.03 324.52 352.74 324.03 354.03 323.03C350.8 323.74 348.33 324.39 345.82 324.8C338.93 325.95 332.19 324.86 325.57 323.05C318.07 321 310.63 318.74 303.17 316.56C302.55 316.38 301.97 316.08 301.47 315.47C305.65 315.94 309.84 316.4 314.02 316.87L314.22 316.27C311.75 314.03 309.28 311.79 306.81 309.55L307.62 308.7C309.86 310.54 312.09 312.38 314.47 314.34C315.65 311.36 316.75 308.59 317.72 306.15C320.87 307.99 323.91 309.77 327.2 311.69C328.35 308.91 329.37 306.44 330.39 303.98C333.6 304.91 336.72 305.81 340.08 306.78V297.15C343.67 298.46 347.05 299.69 351.02 301.14C351.44 297.08 351.81 293.55 352.17 290.06C355.55 290.3 359.09 290.56 363.19 290.85C361.64 286.59 360.24 282.72 358.82 278.81H371.49C370.1 274.49 368.81 270.49 367.49 266.38C370.25 265.24 372.9 264.15 375.91 262.9C373.22 259.76 370.71 256.83 368.01 253.68C370 252.4 372.07 251.06 374.16 249.71C372.08 247.43 370.18 245.36 368.28 243.28L368.81 242.69C371.45 244.98 374.09 247.27 377.36 250.11C374 242.25 369.99 235.73 364.74 229.97L365.42 229.37C368.89 233.02 372.3 236.72 375.84 240.29C377.02 241.47 378.39 242.71 379.91 243.26C387.31 245.93 394.11 249.65 400.39 254.35C401 254.81 401.51 255.39 402.43 256.25C400.58 256.81 399.09 257.26 397.22 257.83C398.18 258.95 398.93 259.94 399.79 260.81C409.92 270.95 419.53 281.71 430.36 291.05C444.91 303.6 461.6 305.51 479.21 297.34C479.79 297.07 480.43 296.92 481.42 296.58C468.66 309.51 454.69 314.62 441.86 310.78C435.03 308.73 429.67 304.55 425.58 298.93C421.23 292.96 417.33 286.65 413.39 280.39C412.51 278.98 411.79 278.21 410.01 278.41C405.95 278.86 401.87 279.11 397.31 279.49C400.4 283.24 403.15 286.59 405.9 289.93C408.67 293.3 411.45 296.67 414.64 300.55C408.5 301.59 403.02 302.74 398.87 307.01C394.7 311.31 393.17 316.59 393.07 323.13C390.65 321.28 388.72 319.99 387.06 318.43C386.6 318 386.63 316.63 386.91 315.88C390.08 307.52 395.98 301.95 404.44 299.1C405.42 298.77 406.42 298.5 407.82 298.09C403.01 292.2 398.43 286.53 393.74 280.95C393.3 280.43 392.21 280.28 391.42 280.27C389.58 280.24 387.73 280.4 385.7 280.5C385.36 282.61 385.04 284.71 384.68 286.81C383.45 293.95 380.77 300.54 376.27 306.18C374.41 308.51 374.74 310.27 375.91 312.45C380.71 321.39 387.86 327.8 397.1 331.82C411.98 338.3 426.05 335.89 439.43 327.52C443.77 324.81 447.97 321.87 452.38 319.25C440.28 333.37 427.98 347.22 407.81 350.57C412.46 354.93 416.7 358.91 420.14 362.13C413.24 368.81 406.6 375.24 399.96 381.66C400.34 382.13 400.71 382.61 401.09 383.08C400.09 382.53 399.08 381.98 397.33 381.02C403.49 374.82 409.43 368.85 415.69 362.54C412.94 360.08 409.87 357.45 406.94 354.68C404.48 352.36 401.94 350.96 398.28 350.73C379.7 349.53 370.18 334.99 372.02 316.89C372.22 314.97 372.54 313.05 372.74 311.6C368.05 314.57 362.81 317.26 358.37 320.93C355.31 323.46 352.98 327.11 350.99 330.64C343.74 343.45 339.09 357.26 335.97 371.61C334.67 377.6 333.46 383.62 331.93 389.55C329.94 397.28 325.7 403.78 320.2 409.5C319.67 410.06 319.17 410.65 318.61 411.27C329.01 416.59 338.07 423.38 345.14 432.61C360.71 452.93 357.46 478.81 337.28 494.64C333.53 497.58 329.4 500.04 325.44 502.71C324.99 503.01 324.49 503.24 323.45 503.8C325.64 500.02 327.76 496.9 329.34 493.53C331.94 487.99 334.56 482.4 336.52 476.62C340.86 463.85 337.93 452.55 328.4 443.09C324.87 439.59 320.92 436.53 317.17 433.26C313.35 429.95 309.54 426.64 305.66 423.28C304.18 424.4 302.55 425.62 300.77 426.96C302.65 429.19 304.61 431.3 306.33 433.59C322.73 455.32 320.27 486.29 300.45 504.97C292.85 512.13 284.73 518.73 277.02 525.78C273.94 528.6 270.96 531.68 268.62 535.12C265.77 539.31 263.66 544 261.61 547.78C261.02 539.96 262.69 531.51 267.43 524.07C271.12 518.27 275.5 512.83 280.11 507.71C287.94 499.02 295.27 490.07 299.33 478.95C304.95 463.54 303.39 448.68 295.22 434.51C294.6 433.43 293.77 432.48 293.06 431.51C289.82 432.57 286.8 433.56 283.71 434.58C292.29 444.31 294.33 455.61 292.11 468.77C290.05 459.83 284.08 454.01 279.47 447.33C277.2 444.04 275.88 440.46 276.6 436.69C270.2 435.58 263.99 434.47 257.76 433.48C257.19 433.39 256.38 433.98 255.87 434.45C248.16 441.6 237.99 441.59 230.04 434.46C229.43 433.91 228.34 433.48 227.57 433.6C221.62 434.51 215.69 435.57 209.48 436.63C210.07 442.31 206.73 446.77 203.21 451.13C199.04 456.28 195 461.5 193.44 468.46C191.01 455.7 193.15 444.45 201.86 434.63C198.96 433.68 196.28 432.66 193.52 432C192.86 431.84 191.62 432.67 191.13 433.39C186.07 440.83 183.54 449.16 183.07 458.08C182.2 474.76 189.01 488.6 199.49 500.95C204.1 506.38 209.2 511.4 213.63 516.97C220.87 526.09 224.93 536.42 223.91 549.15C219.21 532.87 206.59 524.04 195.29 514.12C189.05 508.65 182.5 503.51 177.78 496.53C163.79 475.82 165.49 448.71 181.94 429.84C182.76 428.9 183.6 427.97 184.55 426.9C182.76 425.57 181.06 424.31 179.54 423.18C172.58 429.16 165.51 434.95 158.76 441.09C150.79 448.33 145.91 457.18 147.38 468.29C148.02 473.15 149.42 478.05 151.34 482.57C154.44 489.84 158.26 496.81 161.65 503.64C150.84 497.07 139.81 489.92 134.52 477.16C126.95 458.92 131 442.59 143.98 428.26C147.17 424.74 150.9 421.65 154.7 418.76C158.41 415.94 162.51 413.64 166.57 411.04C166.52 410.95 166.41 410.56 166.16 410.32C157.35 401.92 153.25 391.27 151.42 379.52C148.8 362.72 143.45 346.8 135.41 331.84C133.49 328.27 130.75 325.13 128.35 321.82C128.02 321.36 127.52 320.98 127.04 320.68C122.46 317.82 117.87 314.99 113.47 312.27C113.62 314.78 113.92 317.85 113.96 320.92C114.22 339.16 102.92 350.68 84.7 350.86C83.97 350.86 83.06 350.96 82.55 351.39C78.23 355.03 73.98 358.75 69.62 362.53C75.87 368.54 81.95 374.39 88.33 380.53C86.43 381.79 85.41 382.47 84.39 383.15L85.41 381.82C78.62 375.4 71.84 368.98 64.85 362.37C68.88 358.69 73.17 354.76 77.86 350.47C57.23 347.39 44.92 332.95 32.54 318.51C33.23 318.98 33.93 319.45 34.62 319.93C35.42 320.48 36.22 321.05 37.03 321.59C45.04 327 53.11 332.22 62.73 334.49C80.9 338.78 101.96 328.82 109.98 312.14C111.02 309.97 111.08 308.47 109.49 306.41C104.26 299.63 101.39 291.81 100.39 283.31C100.28 282.36 100.08 281.42 99.93 280.55C94.76 279.32 91.11 280.66 88.17 285.17C85.26 289.63 81.53 293.56 78.27 297.59C82.01 299.5 85.83 301.1 89.26 303.3C94 306.33 97.01 310.94 99.02 316.14C99.28 316.82 99.09 318.12 98.59 318.56C96.95 320.04 95.08 321.26 92.89 322.88C92.2 309.07 84.65 302.26 70.96 300.71C76.87 293.54 82.4 286.83 88.33 279.63C83.38 279.11 78.82 278.56 74.26 278.26C73.68 278.22 72.82 279.37 72.43 280.14C68.4 287.99 63.58 295.31 57.56 301.77C47.71 312.36 34.52 314.97 21.26 308.97C14.9 306.09 9.26 302.13 4.59 296.69C6.37 297.46 8.12 298.32 9.94 299C25.77 304.94 40.48 302.54 53.87 292.53C66.93 282.76 77.05 270.02 88.17 257.94L83.86 255.88C90.16 250.24 97.15 246.28 104.84 243.62C107.16 242.82 108.8 241.65 110.35 239.74C113.21 236.23 116.51 233.08 120.07 229.29C115.89 236.45 112.11 242.93 108.33 249.4C107.83 250.96 107.2 252.49 106.85 254.08C104.16 266.35 106.22 277.72 113.7 287.91C123.08 300.69 135.4 309.3 150.65 313.7C152.53 314.24 154.43 314.72 156.87 315.37L153.52 306.85C149.73 307.81 146.31 308.67 142.59 309.61V301.1C139.22 302.04 136.09 302.91 132.73 303.85C132.2 299.94 131.73 296.4 131.21 292.59C127.54 292.76 123.9 292.93 119.7 293.12C120.85 288.75 121.86 284.88 122.85 281.13H110.72C112.18 276.44 113.56 272.04 114.9 267.75C111.89 266.4 109.01 265.11 105.82 263.68C108.58 260.37 110.99 257.49 113.4 254.6C111.76 252.67 108.37 252.66 108.32 249.41V249.42Z" fill="fff"/>
<path d="M352.66 303.79C349.29 302.97 346.22 302.22 342.85 301.4V309.76C339.13 308.78 335.68 307.88 332.1 306.93C330.97 309.71 329.84 312.46 328.72 315.23C328.96 315.28 329.16 315.39 329.33 315.35C347.7 311.21 362.48 301.69 373.13 286.04C380.63 275.02 381.43 263.14 377.67 250.48C375.66 251.86 373.88 253.08 372 254.37C374.69 257.56 377.17 260.5 379.93 263.77C376.56 265.27 373.59 266.59 370.79 267.83C372.21 272.37 373.56 276.7 374.97 281.21H362.73C363.83 285.07 364.95 288.95 366.16 293.2C361.96 293.01 358.21 292.84 354.52 292.68C353.88 296.52 353.3 300.03 352.67 303.78L352.66 303.79Z" fill="fff"/>
<path d="M76.66 275.44C84.99 276.07 92.3 276.62 99.87 277.2C99.2 266.11 101.24 256.06 105.83 246.5L105.21 246.12C100.77 248.59 96.33 251.06 91.47 253.76L94.84 255.5C88.9 262.01 83.08 268.4 76.66 275.44Z" fill="fff"/>
<path d="M408.99 275.36C402.47 268.4 396.52 262.04 390.4 255.5L394.59 253.92C389.33 251.08 384.63 248.54 380.05 246.07C381.69 251.32 383.64 256.22 384.67 261.31C385.71 266.41 385.82 271.7 386.37 277.26C393.51 276.66 400.82 276.05 408.99 275.36Z" fill="fff"/>
<path d="M193.59 505.05C183.21 493.64 174.43 481.49 174.56 465.06C173.21 482.03 179.18 495.55 193.59 505.05Z" fill="fff"/>
<path d="M311.08 465.04C311.2 481.18 302.71 493.28 292.46 504.55C306.77 495.21 312.09 481.61 311.08 465.04Z" fill="fff"/>
<path d="M316.2 316.93C320.3 316.51 323.98 316.14 327.65 315.77L327.9 314.83C325.09 313.04 322.28 311.26 319.45 309.45C318.37 311.94 317.41 314.14 316.19 316.93H316.2Z" fill="fff"/>
<path d="M157.72 314.7L158.01 315.65C161.66 316.03 165.3 316.42 169.34 316.84C168.23 314.09 167.34 311.89 166.34 309.43C163.36 311.25 160.54 312.98 157.72 314.7Z" fill="fff"/>
<path d="M339.75 486.19C346.47 479.33 349.81 471.25 347.97 461.45C348.06 470.64 344.43 478.55 339.75 486.19Z" fill="fff"/>
<path d="M137.71 461.26C135.89 470.82 138.89 478.86 145.42 485.79C140.99 478.2 137.54 470.3 137.71 461.26Z" fill="fff"/>
<path d="M292.04 154.59C295.58 152.22 293.8 150.14 292.53 147.78C286.47 136.56 284.65 124.45 285.36 111.86C285.78 104.45 287.2 97.27 291.98 91.34C294.25 88.53 297.17 86.23 300.11 83.95C296.54 102.95 297.9 121.38 303.54 139.56C296.42 123.77 294.78 107.25 297.03 89.89C291.5 95.05 288.84 101.29 288.08 108.35C286.63 121.87 288.79 134.78 295.11 146.9C295.42 147.5 295.81 148.05 296.17 148.64C300.57 145.12 304.91 141.66 309.46 138.02C304.11 132.9 301.25 126.27 300.19 118.71C298.7 108.09 300.55 97.91 304.05 87.98C309.81 71.65 319.33 57.55 330.46 44.47C342.66 30.13 356.23 17.25 371.91 6.74C374.57 4.96 377.39 3.33 380.31 2.03C388.09 -1.43 394.34 0.829995 397.41 8.71999C399.87 15.04 401.56 21.67 403.36 28.23C404.65 32.92 405.42 37.74 406.65 42.44C410.25 56.17 419.06 66.54 428.72 76.35C429.68 77.32 430.65 78.28 431.61 79.24C431.65 79.28 431.63 79.39 431.66 79.85C426.33 76.89 421.19 74.03 415.31 70.76C422.58 84.71 426.94 98.76 426.39 113.83C422.01 111.77 417.63 109.71 413.37 107.7C411.66 109.91 411.72 111.05 413.58 112.33C417.1 114.77 420.39 117.55 423.83 120.11C425.99 121.71 426.98 123.72 426.7 126.41C426.44 129.01 426.28 131.63 426.09 134.11C421.61 134.6 417.33 135.06 412.82 135.55C416.32 139.07 419.33 142.1 422.35 145.12L421.88 146.15C416.8 147.09 411.71 148.02 406.36 149C409.47 150.89 412.28 152.59 415.19 154.35C404.8 161.8 391.35 164.91 370.82 150.73C372.33 150.41 373.65 150.17 374.95 149.85C382.93 147.88 388.58 142.66 392.82 136.05C403.18 119.9 407.53 102.31 404.8 83.08C402.49 66.8 397.85 51.13 392.69 35.6C391.18 31.06 389.21 29.82 384.74 31.71C378.76 34.24 372.85 37.11 367.32 40.51C347.81 52.53 331.84 68.15 320.33 88.13C311.73 103.05 309.28 119.18 310.51 136.08C310.54 136.55 310.71 137.01 310.74 137.12C316.39 135.71 321.87 134.06 327.47 133.05C331.18 132.38 335.05 132.68 338.85 132.44C339.69 132.39 340.91 132.12 341.26 131.54C343.29 128.16 346.36 126.26 349.91 124.93C351.09 124.49 352.27 124.01 353.47 123.62C360.59 121.33 364.75 116.61 365.54 109.07C365.81 106.48 366.15 103.89 366.41 101.65C359.09 105.78 351.61 109.67 344.47 114.12C339.55 117.19 336.58 121.87 336.34 127.93C336.3 128.99 336.14 130.05 336.05 131.08C331.36 131.99 330.38 131.26 330.18 126.58C329.74 116.36 333.86 108.1 341.66 101.83C345.58 98.68 350.04 96.14 354.5 93.77C361.12 90.23 367.99 87.13 372.96 80.2C373.31 82.73 373.75 84.52 373.78 86.33C373.95 96.26 374.34 106.2 374.02 116.12C373.83 121.99 370.44 126.41 364.83 128.58C360.12 130.4 355.26 131.82 350.21 133.5C351.55 134.09 352.73 134.61 353.67 135.02C348.75 134.75 343.61 133.92 338.59 134.36C333.23 134.83 327.75 135.89 322.72 137.77C312.64 141.54 303.38 146.99 294.84 153.58C294.24 154.04 293.62 154.47 293.01 154.91L292.06 154.57L292.04 154.59Z" fill="fff"/>
<path d="M174.95 137.91C175.14 136.72 175.35 135.88 175.41 135.04C176.93 113.71 171.1 94.64 158.39 77.43C144.39 58.49 126.46 44.43 105.73 33.69C103.44 32.5 100.83 31.83 98.29 31.26C95.75 30.69 94 31.81 93.25 34.45C90.2 45.11 86.74 55.67 84.11 66.44C82.23 74.17 80.61 82.14 80.31 90.05C79.51 110.8 84.96 129.61 100.28 144.57C104.07 148.27 108.98 149.98 114.39 150.77C94.76 164.21 81.95 162.36 70.02 154.46C73.03 152.7 75.89 151.03 79.14 149.14C73.83 148.09 68.91 147.12 63.79 146.11C65.28 141.43 68.7 138.85 72.87 136.61C68.54 133.95 64.12 134.58 59.5 134.52C59.31 131.1 58.9 127.82 59.06 124.56C59.13 123.21 60.13 121.58 61.2 120.68C64.62 117.79 68.25 115.14 71.86 112.48C72.98 111.65 74.52 110.92 73.33 109.41C72.81 108.75 71.02 108.45 70.15 108.81C66.42 110.35 62.82 112.2 59 114.02C58.48 98.99 62.65 84.93 70.08 70.81C64.44 73.97 59.53 76.71 54.63 79.45L53.99 78.69C54.77 78.07 55.58 77.49 56.31 76.82C70.07 63.98 79.21 48.73 81.85 29.73C82.77 23.14 84.94 16.66 87.09 10.32C90.34 0.770003 96.78 -1.81 105.94 2.53C115.47 7.04 123.48 13.79 131.36 20.65C147.51 34.72 161.58 50.57 172.64 68.99C179.81 80.93 184.86 93.61 185.73 107.63C186.43 118.94 184.58 129.63 176.52 138.22C180.86 141.66 185.09 145.01 189.94 148.85C191.62 144.28 193.56 139.78 194.93 135.12C198.01 124.64 198.42 114 195.97 103.32C194.82 98.3 192.32 93.99 188.36 89.89C190.44 107.02 189.05 123.23 182.7 138.86C187.31 120.89 188.81 102.81 184.87 84.22C192.14 88.03 196.38 94.01 198.07 101.43C201.87 118.15 200.35 134.36 191.94 149.6C191.06 151.19 191.04 151.18 192.97 154.88C191.92 154.12 190.88 153.35 189.83 152.59C179.15 144.94 167.93 138.3 154.95 135.41C150.9 134.51 146.64 134.2 142.48 134.25C138.45 134.3 134.43 135.18 130.3 135.7C131.97 135.03 133.59 134.37 135.69 133.53C131.82 132.35 128.45 131.25 125.04 130.29C116.42 127.88 111.26 122.4 111.27 113.33C111.28 103.1 112.02 92.87 112.46 82.64C112.48 82.18 112.71 81.72 113 80.7C119.25 89.04 128.54 92.3 136.86 97.06C145.9 102.24 152.93 109.16 155.18 119.78C155.73 122.4 155.68 125.23 155.46 127.92C155.16 131.57 154.44 131.9 149.94 131.35C149.86 131.05 149.67 130.69 149.68 130.34C149.9 121.97 145.72 116.32 138.65 112.49C134.54 110.27 130.3 108.3 126.25 105.98C123.92 104.64 121.86 102.83 119.68 101.23C118.26 112.21 122.84 120 132.93 123.83C137.48 125.56 142.17 127.08 144.58 131.93C144.76 132.29 145.55 132.55 146.04 132.53C155.99 132.16 165.6 133.7 175 137.89L174.95 137.91Z" fill="fff"/>
<path d="M387.68 181.28C383.77 177.49 380.07 173.47 375.92 169.97C364.9 160.67 352.52 153.86 338.36 150.62C335.71 150.01 333 149.71 330.64 149.32C333.97 148.1 342.44 148.1 348.39 149.28C364.16 152.41 377.6 160.14 389.17 170.94C398.72 179.86 407.59 189.52 416.79 198.83C425.69 207.84 436.22 213.78 448.92 215.31C450.59 215.51 452.4 214.48 453.98 214.06C453.79 216.65 449.46 221.27 443.06 224.98C429.87 232.63 416.53 232 403.07 225.33C419.14 227.9 434.92 228.87 448.28 216.9C444.97 217.89 441.66 218.87 438.36 219.88C426.67 223.43 415.01 221.95 403.36 219.63C387.7 216.51 372.16 212.78 356.02 212.75C338.25 212.72 322.23 217.8 307.78 228.02C304.68 230.21 301.66 232.52 298.05 235.17C302.88 229.03 307.88 223.97 313.53 219.54C328.42 207.87 345.48 203.84 363.89 206.45C377.74 208.42 391.38 211.79 405.16 214.27C410.8 215.29 416.57 215.65 422.28 216.23C423.41 216.34 424.58 216.05 426.66 215.86C424.9 214.58 423.85 213.72 422.7 213C411.81 206.16 399.75 202.4 387.24 200.08C376.11 198.01 364.91 196.66 353.49 197.52C329.73 199.31 310.55 209.44 296.25 228.51C288.59 238.72 282.41 249.72 280 262.48C279.7 264.07 279.44 265.66 279.01 267.22C276.6 251.81 276.28 236.56 282.34 221.82C291.29 200.06 308.41 188 330.47 182.58C348.46 178.16 366.1 180.94 383.06 187.89C389.69 190.61 395.99 194.13 402.81 197.11C397.73 191.79 392.65 186.48 387.57 181.16L387.67 181.26L387.68 181.28Z" fill="fff"/>
<path d="M400.09 199.57L400.42 198.43C393.87 195.3 387.43 191.9 380.75 189.09C365.29 182.59 349.19 180.2 332.71 183.94C310.27 189.04 294.56 202.82 285 223.49C282.31 229.3 281.04 235.76 279.12 241.92L280.11 242.26C280.57 241.44 281.03 240.61 281.49 239.79C291.33 221.91 304.75 207.89 324.01 200.06C343.35 192.2 363.19 192.49 383.26 196.21C388.88 197.25 394.48 198.44 400.09 199.57Z" fill="fff"/>
<path d="M278.07 380.33C278.01 388.81 276.22 395.65 269.32 400.19C268.74 400.57 268.48 401.64 268.33 402.44C267.58 406.69 264.97 409.48 260.93 410.16C254.91 411.17 249.52 413.15 244.78 417.08C243.97 417.75 241.77 417.83 240.94 417.21C235.84 413.38 230.19 411.2 223.95 409.99C219.91 409.2 217.49 406.23 217 401.93C216.92 401.19 216.45 400.26 215.86 399.86C210.51 396.2 208.21 390.94 207.75 384.7C206.97 374.08 208.66 371.34 218.69 367.69C234.78 361.84 250.91 361.73 267.03 367.62C268.31 368.09 269.54 368.68 270.78 369.25C275.88 371.59 279.09 375.09 278.08 380.34L278.07 380.33Z" fill="fff"/>
<path d="M36.14 216.74C36.66 216.26 37.13 215.43 37.71 215.35C50.19 213.53 60.4 207.54 69.03 198.56C77.62 189.62 85.91 180.36 94.93 171.88C106.82 160.7 120.58 152.55 136.86 149.35C142.92 148.16 149.01 148.03 155.11 149.17C132.81 151.78 115.41 163.57 99.89 178.67C93.86 184.53 88.43 191 83.12 197.67C86.25 195.96 89.35 194.22 92.5 192.56C108.42 184.14 125.39 179.7 143.38 180.85C168.87 182.49 202.03 198.72 207.37 237.71C208.51 246.01 207.47 254.62 207.37 263.08C207.35 264.73 207.03 266.37 206.79 268.54C205.83 264.12 205.42 260.04 204.06 256.29C192.91 225.39 172.75 204.37 139.33 198.38C125.09 195.83 110.94 197.52 96.9 200.28C85.19 202.58 73.9 206.14 63.6 212.35C62.13 213.24 60.78 214.32 59.37 215.32L59.59 216.34C63.78 216.09 68.05 216.26 72.14 215.5C84.67 213.18 97.12 210.45 109.62 207.97C125.36 204.85 140.99 204.41 156.24 210.47C168.23 215.23 177.78 223.28 186.08 232.96C186.24 233.15 186.31 233.43 186.56 233.97C181.81 230.81 177.4 227.71 172.83 224.86C156 214.38 137.49 211.01 118.11 213.39C104.32 215.09 90.67 218 76.98 220.53C63.82 222.96 50.99 222.24 38.51 217.15C37.74 216.84 36.86 216.81 36.03 216.65L36.13 216.73L36.14 216.74Z" fill="fff"/>
<path d="M85.34 198.4L85.72 199.32C88.18 198.87 90.64 198.46 93.09 197.97C108.9 194.82 124.71 192.14 140.95 194.67C161.83 197.91 179.44 207.02 192.84 223.48C197.66 229.41 201.63 236.03 205.64 241.82C204.78 235.56 203.36 228.64 200.06 222.3C186.56 196.34 165.64 182.17 135.87 182.43C125.04 182.52 114.63 185.05 104.7 189.26C98.13 192.05 91.78 195.34 85.33 198.41L85.34 198.4Z" fill="fff"/>
<path d="M207.33 352.57C215.57 335.33 221.85 317.46 226.13 298.92C230.99 277.83 232.75 256.54 228.79 235.06C226.82 224.4 223.55 214.12 219.33 204.13C218.92 203.16 218.54 202.18 218.01 200.86C224.56 206.87 233.5 225.48 242.91 252.58C248.39 233.74 255.2 216.2 267.28 201.15C266.66 202.74 266.08 204.34 265.41 205.91C256.9 225.8 253.22 246.53 254.67 268.13C256.1 289.49 261.25 310.02 268.85 329.96C271.72 337.5 274.92 344.92 277.79 351.95C274.18 349.55 263.32 334.21 256.8 321.9C250.91 310.79 246.22 299.19 242.76 286.12C235.72 311.52 224.41 333.62 207.33 352.56V352.57Z" fill="fff"/>
<path d="M312.12 150.87C312.39 150.4 312.48 150.09 312.68 149.94C325.03 140.98 338.56 136.45 353.89 139.51C357.89 140.31 361.08 139.71 364.54 137.47C374.15 131.23 378.76 122 381.1 111.29C383.89 98.49 382.16 85.89 379.17 73.37C378.43 70.26 377.7 67.15 376.93 63.93C365 71.24 353.26 78.44 341.04 85.93C342.16 72.19 348.85 61.71 357.59 51.51C358.62 56.14 359.54 60.3 360.54 64.83C364.09 58.23 367.44 52.01 370.79 45.79L371.65 46.12C372.52 49.58 373.39 53.04 374.36 56.92C377.16 52.73 379.8 48.76 382.82 44.24C385.24 49.96 387.51 55.09 389.58 60.3C394.74 73.22 398.92 86.41 398.07 100.56C397.2 114.98 391.92 127.81 383.02 139.12C381.42 141.16 379.27 142.82 377.19 144.41C373.89 146.92 370.26 147.55 366.17 146.22C359.71 144.11 353.31 141.73 346.31 141.88C340.18 142.01 334.64 143.9 329.41 146.86C327.08 148.18 324.8 149 322.04 149.13C318.79 149.28 315.57 150.23 312.12 150.88V150.87Z" fill="fff"/>
<path d="M102.6 44.12C105.75 48.83 108.34 52.7 111.18 56.95C112.12 53.12 112.98 49.63 113.83 46.14L114.61 45.88C118 52.06 121.38 58.23 125.08 64.97C126.1 60.42 127.03 56.26 128.06 51.64C136.68 61.73 143.28 72.26 144.93 86.05C132.62 78.45 120.86 71.19 108.65 63.66C107.31 69.81 105.94 75.54 104.82 81.33C102.46 93.47 102.5 105.53 106.27 117.45C109.33 127.13 115.19 134.46 124.22 139.13C125.4 139.74 127.03 140.03 128.32 139.77C143.89 136.62 158.11 139.64 171.07 148.78C171.93 149.39 172.75 150.05 173.55 150.66C168.94 150.09 164.39 149.54 159.84 148.94C159.39 148.88 158.96 148.57 158.56 148.31C148.03 141.65 136.91 139.97 125.07 144.29C123.97 144.69 122.81 144.92 121.75 145.41C114.83 148.6 109.26 146.35 104.46 141.15C95.3 131.23 90.43 119.24 88.18 106.15C86.02 93.6 88.64 81.5 92.8 69.72C95.74 61.4 99.1 53.24 102.61 44.13L102.6 44.12Z" fill="fff"/>
<path d="M280.94 315.28C277.6 302.21 274.17 289.16 270.96 276.06C267.85 263.35 265.47 250.49 265.43 237.36C265.38 220.31 267.68 203.67 276.54 188.67C284.56 175.08 296.91 167.74 312.32 165.51C332.77 162.55 352.3 165.87 370.93 174.71C372.85 175.62 374.82 176.44 376.75 177.34C376.93 177.42 376.97 177.79 377.19 178.26C372.82 176.67 368.71 175 364.5 173.68C341.82 166.58 320.54 169.05 301.36 183.67C284.78 196.3 275.99 213.34 273.8 233.97C272.32 247.87 273.47 261.65 275.47 275.38C277.36 288.39 279.45 301.36 281.43 314.35C281.47 314.62 281.37 314.91 281.33 315.19L280.95 315.27L280.94 315.28Z" fill="fff"/>
<path d="M112.17 175.44C118.24 173.15 124.2 170.51 130.4 168.64C144.98 164.24 159.85 163.17 174.9 165.93C195.97 169.8 208.72 183.01 215.17 202.71C221.17 221.05 221.95 239.95 218.21 258.76C214.38 278 209.49 297.03 205.07 316.16L204.13 315.96C205.02 310.42 205.96 304.88 206.8 299.33C209.81 279.49 213.16 259.72 212.43 239.48C211.31 208.62 191.57 181.75 162.9 172.79C145.54 167.36 128.86 170.08 112.44 176.64C111.63 176.96 110.84 177.31 110.03 177.63C109.96 177.66 109.85 177.59 109.62 177.54C110.55 176.77 111.41 176.06 112.27 175.34L112.18 175.43L112.17 175.44Z" fill="fff"/>
<path d="M197.91 351.87C197.68 347.2 197.25 342.53 197.25 337.86C197.23 325.04 191.3 315.37 181.08 308.36C175.76 304.71 169.76 302.02 163.96 299.1C157.19 295.69 150.01 293.02 143.55 289.12C130.76 281.39 124.51 269.32 123.42 254.7C122.94 248.25 123.69 241.71 123.88 235.21L124.88 235.13C125.51 237.25 126.11 239.39 126.78 241.5C130.38 252.87 135.34 263.44 144.24 271.78C151.2 278.3 159.66 281.51 168.84 283.01C187.89 286.13 197.14 300.53 200.04 316.77C201.64 325.76 200.22 334.65 199.16 343.55C198.83 346.33 198.44 349.11 198.08 351.89L197.9 351.87H197.91Z" fill="fff"/>
<path d="M287.33 351.43C286.54 342.44 284.95 333.44 285.14 324.47C285.45 310.01 290.09 297.09 302.59 288.27C307.31 284.94 312.78 283.54 318.39 282.57C335.79 279.58 347.12 269.01 354.12 253.38C356.72 247.57 358.62 241.45 360.74 235.73C365.19 254.63 360.98 278.39 340.18 290.17C333.69 293.84 326.74 296.79 319.77 299.49C310.84 302.95 303.18 308.06 296.8 315.11C292.13 320.27 289.74 326.49 289.12 333.35C288.58 339.35 288.26 345.38 287.84 351.39L287.33 351.42V351.43Z" fill="fff"/>
<path d="M204.1 458.74C211.31 478.84 228.24 490.77 242.85 504.65C250.32 497.55 258.06 490.55 265.36 483.13C271.98 476.4 276.85 468.4 280.37 459.62C280.58 459.1 280.86 458.6 281.59 458.22C280.69 464.75 280.12 471.35 278.83 477.8C276.53 489.27 270.24 498.57 261.98 506.64C259.54 509.03 257.08 511.4 254.66 513.82C248.99 519.51 244.69 526.03 242.56 534.56C240.15 524.49 234.39 517.32 227.57 510.76C223.64 506.98 219.84 503.02 216.39 498.8C208.76 489.48 205.65 478.42 204.76 466.61C204.56 463.99 204.32 461.37 204.1 458.75V458.74Z" fill="fff"/>
<path d="M210.71 444.41C229.17 458.1 255.38 458.1 274.95 444.5C275.37 452.14 273.12 458.68 267.89 463.94C264.61 467.24 260.88 470.12 257.12 472.88C251.77 476.8 246.33 480.57 242.71 486.58C238.66 480.09 232.51 476.27 226.88 471.82C222.64 468.47 218.49 464.82 215.04 460.69C211.33 456.24 210.27 450.61 210.71 444.41Z" fill="fff"/>
<path d="M124.93 230.73C132.63 234.92 140.15 237.99 148.63 237.56C149.85 237.5 151.22 237.25 152.22 236.62C162.66 229.99 172.87 231.3 182.11 238.46C194.63 248.15 202.03 261.17 204.1 276.98C204.63 281.02 204.65 285.13 204.35 289.34C203.89 288 203.41 286.67 202.96 285.33C200.36 277.51 195.39 271.96 187.32 269.73C181.71 268.18 176.03 266.74 170.29 265.8C161.42 264.35 154.81 259.72 149.94 252.41C148.16 249.74 145.96 247.81 143.08 246.36C136.85 243.23 131.2 239.27 126.79 233.74C126.31 233.13 125.84 232.51 125.39 231.87C125.24 231.65 125.18 231.38 124.91 230.73H124.93Z" fill="fff"/>
<path d="M169.38 241.83C167.43 241.21 165.89 240.56 164.28 240.27C163.51 240.13 162.34 240.39 161.83 240.93C157.83 245.07 157.34 251.99 160.77 256.54C164.75 261.81 170.21 263.96 176.69 263.24C183.49 262.48 188.36 258.85 191.57 252.45C188.52 250.44 185.6 248.52 182.33 246.36C181.73 250.68 179.89 253.27 176.12 253.89C173.19 254.37 170.41 253.85 168.59 251.17C166.43 248.01 166.92 244.93 169.38 241.84V241.83Z" fill="fff"/>
<path d="M281.41 289.42C280.32 270.22 286.83 254.74 299.35 241.72C304.17 236.71 310.19 233.54 317.24 232.58C321.96 231.94 326.55 232.62 330.47 235.08C335.61 238.3 340.86 238.11 346.19 236.62C351.01 235.27 355.66 233.31 361.09 231.37C358.7 233.9 356.89 236.42 354.52 238.18C350.24 241.36 345.61 244.07 341.16 247.02C339.88 247.87 338.33 248.66 337.58 249.88C331.2 260.38 321.69 265.46 309.72 266.84C305.89 267.28 302.13 268.51 298.42 269.64C290.7 272.01 285.61 277.15 283.05 284.81C282.63 286.08 282.15 287.33 281.4 289.41L281.41 289.42Z" fill="fff"/>
<path d="M293.76 252.49C298.52 260.35 304.03 263.58 311.69 263.3C319.09 263.03 325.56 258.24 326.95 251.9C327.92 247.5 326.28 243.66 323.34 240.69C321.27 238.59 318.9 241.25 316.64 241.57C316.5 241.59 316.38 241.79 316.22 241.95C318.5 244.43 319.15 247.23 317.47 250.25C315.9 253.08 313.41 254.37 310.15 253.97C305.86 253.44 303.87 250.71 303.44 246.1C299.99 248.39 296.94 250.4 293.77 252.5L293.76 252.49Z" fill="fff"/>
<path d="M233.88 165.86C237.1 172.02 241.93 177.42 242.29 183.59C244.82 178.51 247.8 172.53 250.78 166.55L251.42 166.89C250.32 173.12 249.22 179.34 248.12 185.57L249.05 185.81C253.14 170.12 263.7 158.8 274.92 147.66C264.22 132.82 253.58 118.08 242.87 103.22C231.98 118.07 221.28 132.68 210.42 147.5C222.48 159.73 234.4 172.07 235.88 190.6C235.68 190.34 235.37 190.11 235.28 189.82C230.35 174.23 220.93 161.58 209.23 150.51C207.15 148.54 207.04 147.29 208.76 145.04C215.47 136.3 221.99 127.4 228.58 118.56C229.32 117.56 230 116.51 230.38 115.09C228.12 116.65 225.86 118.21 223.61 119.77L222.85 119.02C227.77 108.19 235.89 99.48 242.84 89.24C249.6 99.17 257.23 107.95 262.05 118.54L261.29 119.24C259.11 117.7 256.93 116.15 254.76 114.61L254.29 114.92C262.38 125.91 270.48 136.89 278.58 147.89C274.69 152.01 270.83 155.86 267.24 159.94C259.63 168.59 253.63 178.21 250.17 189.3C249.9 190.16 249.12 190.87 248.58 191.64L247.83 191.13C246.27 195.39 244.7 199.65 243.11 203.99C235.92 192.2 237.31 178.46 233.91 165.86H233.88Z" fill="fff"/>
<path d="M270.22 96.4C273.77 96.71 277.04 97.31 277.94 101.16C278.7 104.41 277 106.55 273.61 108C276.9 109.46 278.94 111.51 278.45 114.98C277.99 118.27 275.41 119.23 272.7 119.83C273.71 121.17 274.91 122.35 275.62 123.78C276.91 126.36 276.61 128.89 274.52 131.04C272 133.62 270.16 133.48 268.06 130.61C267.09 129.28 266.08 127.97 264.98 126.51C269.44 119.93 271.87 112.79 270.12 104.77C268.73 98.41 265.12 93.44 259.98 89.52C249.95 81.86 234.55 82.01 225.51 89.77C215.3 98.53 211.52 111.65 220.62 126.36C219.17 128.23 217.79 130.25 216.13 132C215.6 132.56 214.21 132.83 213.43 132.57C209.27 131.17 207.82 127.31 209.91 123.45C210.5 122.36 211.26 121.36 212.11 120.07L207.63 119.7C207.42 115.6 208.89 112.51 211.86 110.08C206.93 107 206.5 106.15 207.4 101.12C208.87 101.02 210.39 100.92 212.84 100.75C209.46 98.65 208.37 96.27 210.53 93.29C211.77 91.58 212.21 91.55 217.49 93.03C215.77 89.88 214.89 86.86 218.14 84.43C221.12 82.2 223.11 84.41 225.42 86.72C225.19 82.8 224.65 79.11 228.81 77.61C231.94 76.48 234.35 77.65 237.33 81.51C238.39 78.14 238.95 74.28 243.64 74.57C247.63 74.82 247.94 78.19 248.73 81.13C251.72 77.69 254.57 76.63 257.27 77.89C259.94 79.14 260.88 81.71 260.03 85.91C263.72 83.63 267.22 83.13 270.25 86.65C272.67 89.45 272.69 92.11 270.23 96.39L270.22 96.4Z" fill="fff"/>
<path d="M350.69 334.48C350.97 338.75 350.84 343.17 351.61 347.42C353.47 357.63 359.86 364.75 368.63 369.63C374.13 372.69 380.13 374.84 385.86 377.51C389.03 378.98 392.2 380.49 395.19 382.29C406.08 388.88 409.3 399.19 409.05 410.88C406.85 407.94 404.89 404.56 402.22 401.89C397.58 397.24 391.46 394.99 385.38 392.85C380.89 391.26 376.33 389.87 371.88 388.18C349.82 379.79 342.42 359.74 349.25 338.76C349.73 337.3 350.24 335.84 350.69 334.49V334.48Z" fill="fff"/>
<path d="M134.43 334.27C140.28 349.17 141.05 363.59 130.46 376.76C125.74 382.62 119.23 386.02 112.35 388.65C106.91 390.73 101.31 392.42 95.86 394.48C87.63 397.58 80.49 402.01 77.31 411.26C75.87 398.96 80.07 388.63 89.42 382.93C94.45 379.87 99.96 377.55 105.39 375.22C112.48 372.18 119.55 369.18 125.19 363.67C132.84 356.2 135.85 347.14 134.58 336.59C134.49 335.82 134.48 335.05 134.43 334.28V334.27Z" fill="fff"/>
<path d="M17.3 245.81C31.73 252.35 45.4 252.01 58.56 243.64C69.25 236.85 79.83 229.89 90.46 223.02C91.25 222.51 92.11 222.12 93.29 222.03C92.13 223.49 90.88 224.88 89.84 226.42C85.11 233.44 80.59 240.61 75.72 247.53C70.69 254.67 64.27 260.28 56.02 263.52C44.37 268.11 32.66 265.16 24.63 255.53C22.09 252.48 19.83 249.19 17.29 245.8L17.3 245.81Z" fill="fff"/>
<path d="M393.4 221.93C399.49 225.91 405.57 229.9 411.68 233.85C417.73 237.76 423.61 242 429.93 245.43C442.03 252 454.46 252.19 466.87 245.97C467.1 245.85 467.38 245.85 468.28 245.66C465.03 249.91 462.39 253.98 459.13 257.48C450.01 267.28 434.9 268.49 422.84 260.03C418.05 256.67 413.51 252.5 410.02 247.84C403.93 239.7 398.73 230.89 393.15 222.37L393.4 221.94V221.93Z" fill="fff"/>
<path d="M379.21 445.42C378.37 433.14 371.1 425.38 361.37 419.26C357.58 416.87 353.62 414.65 350.2 411.79C337.61 401.29 332.72 388.07 337.07 371.04C337.54 373.59 337.85 375.36 338.2 377.12C339.81 385.33 344.52 391.23 351.8 395.14C356.6 397.72 361.59 399.97 366.27 402.75C374.45 407.61 380.7 414.1 382.03 424.06C383.01 431.38 382.2 438.52 379.21 445.42Z" fill="fff"/>
<path d="M148.58 371.47C152.08 383.47 150.41 394.62 142.7 404.19C139.04 408.73 134.08 412.28 129.46 415.96C125.97 418.74 121.93 420.83 118.39 423.56C111.2 429.1 107.07 436.48 106.12 446.03C103.47 438.76 102.61 431.75 103.48 424.59C104.6 415.38 109.9 408.85 117.4 403.98C121.06 401.6 124.91 399.41 128.92 397.7C140.59 392.74 147.96 384.71 148.58 371.47Z" fill="fff"/>
<path d="M221.77 153.07C228.72 143.51 235.66 133.95 243.05 123.8C250.11 133.75 256.92 143.33 263.89 153.15C262.83 153.63 262.29 154.1 261.83 154.04C257.92 153.54 256.28 156.02 254.58 158.94C250.64 165.71 246.43 172.33 242.77 178.29C238.35 171.08 233.61 163.3 228.78 155.59C228.36 154.93 227.29 154.5 226.45 154.31C225.16 154.03 223.8 154.05 222.47 153.94L221.79 153.07H221.77Z" fill="fff"/>
<path d="M242.77 142.8C240.84 145.73 239.04 148.34 237.42 151.07C237.08 151.65 237.18 152.76 237.49 153.43C239.1 156.79 240.86 160.09 242.7 163.68C244.64 159.93 246.49 156.42 248.26 152.88C248.47 152.45 248.51 151.7 248.27 151.32C246.55 148.54 244.73 145.82 242.77 142.81V142.8Z" fill="fff"/>
<path d="M83.59 238.49C78.95 254.48 73.24 269.81 58.03 279.11C39.41 290.49 18.72 283.54 10.85 263.25C9.95001 260.92 9.26001 258.5 8.49001 256.16C12.19 259.58 15.59 263.25 19.51 266.24C30.54 274.64 42.46 274.31 54.6 268.96C66.52 263.7 75.82 255.61 81.13 243.42C81.86 241.74 82.77 240.14 83.6 238.5L83.59 238.49Z" fill="fff"/>
<path d="M61.93 271.15C52.65 275.73 43.22 279.33 32.64 278.27C43.83 281.68 53.4 278.35 61.93 271.15Z" fill="fff"/>
<path d="M401.8 239.31C404.96 244.38 407.71 250.37 411.86 255.13C421.17 265.82 433.03 272.25 447.5 272.64C459.13 272.95 467.5 266.59 474.75 258.33C475.25 257.75 475.71 257.14 476.76 256.72C476.3 258.37 475.96 260.07 475.37 261.67C471.04 273.38 463.68 281.98 450.75 284.06C439.63 285.85 429.84 282.22 421.71 274.77C411.82 265.71 406.29 253.91 402.3 241.32C402.04 240.5 401.88 239.66 401.8 239.32V239.31Z" fill="fff"/>
<path d="M423.61 271.15C432.41 278.4 442.14 281.73 453.43 278.18C442.61 279.54 433.03 275.69 423.61 271.15Z" fill="fff"/>
<path d="M409.88 318.96C409.88 313.4 414.49 308.83 420.13 308.81C425.57 308.79 430.34 313.44 430.31 318.72C430.28 324.06 425.3 328.89 419.87 328.83C414.75 328.78 409.88 323.97 409.87 318.96H409.88Z" fill="fff"/>
<path d="M55.3 318.95C55.25 313.26 59.85 308.64 65.49 308.7C70.91 308.76 75.53 313.44 75.53 318.88C75.53 324.06 70.77 328.85 65.59 328.86C60.08 328.87 55.35 324.31 55.3 318.94V318.95Z" fill="fff"/>
<path d="M177.72 321.28C175.76 322.68 173.79 324.07 171.79 325.49C176.15 329.26 177.15 331.96 175.42 335.12C173.63 338.39 170.48 339.26 165.53 337.69C167.81 342.2 171.85 344.23 175.84 346.58C173.3 345.87 170.65 345.41 168.24 344.39C160.12 340.95 158.85 330.5 166.15 325.51C169.49 323.22 173.58 322.01 177.33 320.31L177.71 321.28H177.72Z" fill="fff"/>
<path d="M309.42 346.67C313.32 344.36 317.3 342.38 319.54 338.18C317.61 338.18 315.54 338.71 313.99 338.03C312.4 337.34 310.85 335.7 310.13 334.09C308.75 331.05 310.29 328.31 314.37 325.64C313.23 324.82 312.17 324.06 311.11 323.3C310.12 322.59 309.14 321.87 308.15 321.15L308.56 320.35C312.06 321.9 315.83 323.04 319.02 325.08C326.46 329.83 325.66 340.25 317.66 344.04C315.07 345.27 312.17 345.82 309.41 346.68L309.42 346.67Z" fill="fff"/>
<path d="M308.45 518.77C308.5 514.49 311.81 511.23 316.09 511.24C320.39 511.25 323.84 514.79 323.76 519.1C323.68 523.24 320.22 526.48 315.92 526.44C311.65 526.4 308.41 523.07 308.45 518.77Z" fill="fff"/>
<path d="M169.85 526.44C165.62 526.48 162.1 523.1 162.12 519.02C162.14 514.97 165.67 511.34 169.68 511.24C173.79 511.14 177.44 514.59 177.51 518.64C177.59 523.02 174.27 526.4 169.85 526.44Z" fill="fff"/>
<path d="M56.82 421.38C51.62 423.94 49.8 427.03 50.6 431.47C51.22 434.9 54.27 437.67 57.87 438.07C62.13 438.54 65.42 436.56 67.11 432.5C68.9 428.18 67.55 424.47 62.82 420.69C68.78 421.29 72.27 426.24 70.91 432.18C69.57 438.05 64.59 441.69 58.14 441.49C52.53 441.32 47.73 437.1 46.81 431.54C45.81 425.46 50.68 420.25 56.81 421.37L56.82 421.38Z" fill="fff"/>
<path d="M427.97 421.7C432.7 420.14 437.38 423.53 438 428.54C438.76 434.68 434.78 440.07 428.58 441.31C422.28 442.57 416 438.8 414.48 432.85C412.86 426.48 415.94 421.59 421.72 420.78C420.49 422.55 418.47 424.37 417.9 426.57C417.35 428.7 417.78 431.45 418.71 433.52C420.45 437.42 424.46 438.93 428.53 437.89C431.64 437.1 434.25 433.95 434.5 430.69C434.84 426.3 432.9 423.55 427.96 421.69L427.97 421.7Z" fill="fff"/>
<path d="M36.05 216.65C42.21 222.51 49.63 225.45 58 226.44C65.55 227.33 72.98 226.68 80.39 225.33C80.95 225.23 81.54 225.24 82.31 225.19C66.77 236.04 34.93 228.49 30.9 213.13C32.66 214.34 34.4 215.53 36.14 216.73L36.05 216.65Z" fill="fff"/>
<path d="M242.75 546.99C244.71 549.18 246.65 551.1 248.28 553.25C250.63 556.33 250.21 559.51 247.39 562.07C244.67 564.54 240.63 564.51 237.85 562C235.31 559.7 234.96 555.95 237.24 553.07C238.86 551.02 240.75 549.18 242.75 547V546.99Z" fill="fff"/>
<path d="M368.56 444.87C372.76 444.85 375.83 447.82 375.83 451.93C375.83 455.64 372.53 458.9 368.68 458.97C364.89 459.04 361.39 455.78 361.33 452.1C361.27 448.19 364.57 444.89 368.55 444.87H368.56Z" fill="fff"/>
<path d="M124.13 452.06C124.06 455.79 120.64 458.99 116.78 458.94C112.92 458.89 109.72 455.62 109.78 451.78C109.84 447.68 113 444.75 117.22 444.87C121.19 444.98 124.21 448.13 124.13 452.06Z" fill="fff"/>
<path d="M55.3 353.79C55.31 357.76 52.29 360.76 48.28 360.77C44.12 360.77 41.2 357.94 41.21 353.91C41.22 349.88 44.14 346.96 48.22 346.92C52.31 346.88 55.29 349.77 55.3 353.79Z" fill="fff"/>
<path d="M437.23 360.76C433.14 360.79 430.21 357.91 430.21 353.88C430.21 349.91 433.26 346.83 437.17 346.87C441.01 346.91 444.33 350.14 444.35 353.86C444.37 357.71 441.24 360.73 437.23 360.76Z" fill="fff"/>
<path d="M67.75 403.4C60.94 408.03 51.53 405.68 47.16 398.57C42.97 391.76 45.31 382.89 52.28 379.13C55.01 377.66 58.27 379.13 60.09 382.33C58.53 382.33 56.58 381.87 55.03 382.46C53.41 383.07 51.96 384.51 50.83 385.91C48.2 389.18 48.11 393.74 50.3 397.43C53.46 402.76 59.43 405.13 66.31 403.79C66.67 403.72 67.03 403.6 67.76 403.4H67.75Z" fill="fff"/>
<path d="M419.68 404.37C422.46 404.03 425.48 404.12 428.18 403.25C435.99 400.73 439.1 392.25 434.79 385.96C432.23 382.23 429.96 381.41 425.56 382.62C427.31 378.57 431.35 377.41 434.69 380C440.86 384.77 442.36 393.11 438.15 399.27C433.97 405.38 425.34 407.67 419.67 404.38L419.68 404.37Z" fill="fff"/>
<path d="M87.2 424.52C83.38 424.55 80.46 421.68 80.51 417.96C80.56 414.46 83.59 411.57 87.18 411.6C90.71 411.63 93.65 414.56 93.72 418.12C93.79 421.71 90.97 424.48 87.21 424.51L87.2 424.52Z" fill="fff"/>
<path d="M405.16 418.11C405.2 421.74 402.39 424.48 398.62 424.47C394.78 424.47 392.12 421.85 392.14 418.1C392.16 414.48 395.02 411.64 398.66 411.64C402.34 411.64 405.12 414.41 405.16 418.11Z" fill="fff"/>
<path d="M131.65 491.53C136.38 491.05 139.54 495.04 138.41 500.06C137.31 504.95 132.02 508.11 127.13 506.8C121.89 505.4 118.5 499.9 119.95 495.14C121.01 491.66 124 489.69 129.04 489.16C123.58 492.85 122.21 495.3 123.32 499.39C124 501.88 126.79 504.08 129.46 504C131.85 503.93 133.81 502.92 134.77 500.57C136.08 497.36 134.93 494.09 131.65 491.52V491.53Z" fill="fff"/>
<path d="M356.91 489.36C362.91 489.79 366.2 492.99 365.89 498.08C365.56 503.48 360.85 507.47 355.28 507.07C350.42 506.72 346.73 502.23 347.11 497.12C347.39 493.35 350.08 491.13 353.23 491.35C352.3 493.23 350.81 495.25 350.38 497.49C350.1 498.92 351.03 500.97 352.06 502.2C354.35 504.93 358.72 504.53 361.06 501.71C364.12 498.03 362.56 493.39 356.9 489.37L356.91 489.36Z" fill="fff"/>
<path d="M11.92 318.56C10 320.31 7.79 322.03 5.96 324.07C3.94 326.33 3.57 329.16 4.64 332C5.7 334.84 8.61999 336.71 11.48 336.54C14.68 336.35 16.79 334.85 17.19 331.38C19.36 333.82 18.92 336.8 16.13 338.73C13.27 340.71 10.16 340.96 7 339.53C3.47 337.92 1.26999 335.13 0.809995 331.3C-5.49853e-06 324.47 4.68 319.3 11.91 318.56H11.92Z" fill="fff"/>
<path d="M472.7 318.49C481.18 319.59 486.01 325.66 484.27 332.51C482.84 338.16 476.69 341.72 471.36 340C467.16 338.64 465.64 334.78 468.03 331.52C469.04 335.28 471.68 337.12 475.17 336.47C479 335.76 481.68 332.13 481.11 328.34C480.63 325.16 478.83 322.81 476.29 320.97C475.22 320.2 474.12 319.47 472.71 318.5L472.7 318.49Z" fill="fff"/>
<path d="M392.06 377.58C390.04 376.54 388.15 375.56 385.99 374.45C390.75 369.66 393.81 364.26 392.8 357.05C398.94 362.99 398.57 371.32 392.06 377.59V377.58Z" fill="fff"/>
<path d="M34.21 327.99C29.38 335.88 28.14 344.22 31.53 352.87C34.82 361.25 41.29 366.65 49.35 370.32C39.32 367.91 31.9 362.44 28.63 352.33C25.84 343.71 28.19 333.62 34.21 327.99Z" fill="fff"/>
<path d="M92.62 357.24C91.67 364.26 94.91 369.52 99.66 374.28C98.69 374.82 97.88 375.28 97.07 375.73C93.49 377.73 93.05 377.63 90.79 374.26C87.34 369.13 87.9 362.88 92.62 357.24Z" fill="fff"/>
<path d="M452.12 328.64C457.59 335.46 458.93 343.43 456.59 351.97C453.72 362.45 446 367.78 435.89 370.58C439.46 368.19 443.31 366.31 446.19 363.46C449.16 360.52 451.86 356.9 453.41 353.06C454.93 349.32 455.53 344.9 455.28 340.85C455.02 336.73 453.23 332.7 452.12 328.64Z" fill="fff"/>
<path d="M57.92 137.16C57.94 139.9 55.56 142.16 52.61 142.23C49.39 142.3 47.11 140.2 47.1 137.17C47.1 134.2 49.45 131.86 52.47 131.82C55.33 131.78 57.9 134.31 57.92 137.16Z" fill="fff"/>
<path d="M432.95 131.86C436.03 131.91 438.29 134.28 438.16 137.32C438.04 140.18 435.61 142.41 432.74 142.29C429.73 142.16 427.38 139.71 427.45 136.78C427.51 134.1 430.07 131.81 432.95 131.86Z" fill="fff"/>
<path d="M264.76 67.49C268.52 82.31 282.22 85.21 290.5 74.95C288.35 81.33 282.17 85.08 275.76 83.87C269.09 82.61 264.23 75.38 264.76 67.48V67.49Z" fill="fff"/>
<path d="M130.21 424.38C133.11 424.43 135.37 426.76 135.27 429.59C135.17 432.29 132.8 434.48 130.07 434.39C127.21 434.3 124.98 431.93 125.07 429.07C125.16 426.2 127.21 424.33 130.21 424.38Z" fill="fff"/>
<path d="M195.63 75.44C204.3 85 217.83 82.64 221.39 67.12C221.47 75.93 217.41 82.4 210.91 83.86C204.59 85.27 198.62 82.05 195.64 75.44H195.63Z" fill="fff"/>
<path d="M361.06 429.33C361.09 432.01 358.83 434.32 356.09 434.41C353.14 434.5 350.68 432.26 350.71 429.5C350.74 426.72 352.91 424.5 355.64 424.43C358.57 424.35 361.02 426.58 361.05 429.34L361.06 429.33Z" fill="fff"/>
<path d="M96.83 162.78C92.86 166.56 88.77 170.24 84.93 174.16C77.01 182.24 69.24 190.47 61.34 198.57C60.57 199.36 59.31 199.67 57.98 199.68C71.43 187.77 82.02 173.05 96.83 162.78Z" fill="fff"/>
<path d="M440.38 105.66C440.33 108.48 438.37 110.36 435.51 110.31C432.68 110.26 430.39 108.04 430.41 105.38C430.44 102.7 432.83 100.42 435.57 100.47C438.32 100.52 440.42 102.79 440.37 105.66H440.38Z" fill="fff"/>
<path d="M106.07 403.41C103.33 403.35 101.31 401.3 101.31 398.56C101.31 395.73 103.53 393.46 106.26 393.48C108.81 393.5 111.31 396.08 111.27 398.63C111.22 401.33 108.9 403.47 106.07 403.4V403.41Z" fill="fff"/>
<path d="M45.25 105.55C45.27 102.71 47.46 100.44 50.16 100.47C52.9 100.5 55.15 102.76 55.19 105.53C55.23 108.11 52.79 110.33 49.96 110.31C47.11 110.28 45.23 108.38 45.25 105.55Z" fill="fff"/>
<path d="M384.29 398.68C384.23 401.47 382.03 403.44 379.09 403.35C376.35 403.26 374.3 401.15 374.37 398.48C374.44 395.79 376.84 393.44 379.47 393.49C382.14 393.54 384.35 395.92 384.29 398.69V398.68Z" fill="fff"/>
<path d="M395.17 438.55C397.75 438.6 399.88 440.77 399.76 443.23C399.64 445.66 397.26 447.87 394.89 447.76C392.21 447.64 390.4 445.69 390.45 442.98C390.5 440.33 392.45 438.5 395.17 438.55Z" fill="fff"/>
<path d="M90.41 438.53C93.06 438.53 95.04 440.45 95.07 443.05C95.1 445.51 92.88 447.71 90.42 447.65C87.78 447.58 85.8 445.62 85.8 443.05C85.8 440.44 87.74 438.53 90.41 438.53Z" fill="fff"/>
<path d="M391.81 164.58C396.87 169.43 401.93 174.27 406.97 179.14C413.43 185.37 419.89 191.6 426.31 197.87C426.83 198.38 427.02 199.24 427.37 199.93C426.54 199.7 425.47 199.71 424.91 199.19C420.54 195.01 416.22 190.76 411.97 186.46C405.39 179.8 398.87 173.07 392.33 166.38C391.94 165.98 391.57 165.58 391.18 165.18L391.8 164.59L391.81 164.58Z" fill="fff"/>
<path d="M218.19 167.78C217.76 168.38 217.44 169.29 217 169.35C216.26 169.45 215.26 169.23 214.68 168.76C211.66 166.32 208.78 163.69 205.74 161.27C204.07 159.95 202.13 158.97 200.43 157.69C200.02 157.38 200.06 156.46 199.89 155.82C200.56 155.72 201.45 155.28 201.85 155.56C206.9 159.01 211.89 162.55 216.86 166.12C217.38 166.49 217.69 167.15 218.18 167.78H218.19Z" fill="fff"/>
<path d="M323.09 131.25C318.59 116.29 325.93 96.32 339.13 87.67C326.7 99.59 321.45 114.15 323.09 131.25Z" fill="fff"/>
<path d="M364.66 477.4C364.64 479.9 362.75 481.83 360.25 481.86C357.65 481.9 355.56 479.83 355.63 477.3C355.7 474.76 357.56 473.03 360.19 473.05C362.7 473.06 364.67 474.98 364.66 477.4Z" fill="fff"/>
<path d="M285.89 156.84C285.36 157.31 284.91 157.76 284.41 158.15C280 161.62 275.62 165.14 271.11 168.47C270.36 169.02 269.02 168.77 267.96 168.89C268.23 167.91 268.18 166.51 268.82 166.03C273.46 162.53 278.23 159.19 283.01 155.88C283.55 155.51 284.4 155.47 285.09 155.52C285.35 155.54 285.56 156.26 285.89 156.84Z" fill="fff"/>
<path d="M146.63 87.83C160 96.08 166.91 116.69 162.57 131.93C164.23 114.21 158.94 99.73 146.63 87.83Z" fill="fff"/>
<path d="M130.26 477.62C130.2 480 128.06 481.95 125.59 481.87C123.08 481.79 121.3 479.83 121.38 477.24C121.46 474.61 123.24 472.98 125.96 473.05C128.44 473.11 130.31 475.11 130.25 477.62H130.26Z" fill="fff"/>
<path d="M457.32 363.62C457.39 361.15 459.41 359.29 461.9 359.42C464.21 359.54 466.14 361.56 466.06 363.79C465.98 366.05 463.61 368.22 461.39 368.08C459.07 367.92 457.26 365.94 457.32 363.62Z" fill="fff"/>
<path d="M23.99 368.02C21.57 368.05 19.65 366.28 19.55 363.94C19.45 361.45 21.37 359.44 23.85 359.45C26.12 359.45 28.12 361.39 28.21 363.69C28.3 365.94 26.3 367.98 23.99 368.02Z" fill="fff"/>
<path d="M307.25 369.68C305.54 380.99 296.55 389.24 288.99 386.05C290.83 385.03 292.24 384.18 293.7 383.45C301.09 379.78 303.72 377.19 307.25 369.68Z" fill="fff"/>
<path d="M196.65 386.17C188.61 388.76 179.18 380.14 178.68 371.93C180.66 374.17 182.93 377.5 185.92 379.93C188.92 382.37 192.65 383.91 196.65 386.17Z" fill="fff"/>
<path d="M232.78 202.21C232.71 204.36 230.41 206.41 228.22 206.26C226.14 206.12 224.34 204 224.42 201.81C224.5 199.68 226.48 197.96 228.8 198.01C231.02 198.06 232.84 199.98 232.77 202.22L232.78 202.21Z" fill="fff"/>
<path d="M257.16 206.24C254.92 206.24 253 204.39 252.95 202.19C252.9 199.92 254.68 198.12 256.98 198.13C259.37 198.13 261.48 200.07 261.45 202.22C261.42 204.26 259.3 206.25 257.16 206.24Z" fill="fff"/>
<path d="M180.86 389.47C184.76 395.78 192.11 395.78 197.32 399.72C191.51 402.96 182.29 397.2 180.86 389.47Z" fill="fff"/>
<path d="M221.2 194.84C218.78 194.78 217.07 193.04 217.19 190.78C217.31 188.57 219.2 186.95 221.59 187.06C224.09 187.17 225.26 188.65 225.35 191.01C225.44 193.29 223.62 194.91 221.2 194.85V194.84Z" fill="fff"/>
<path d="M198.21 169.83C196 169.91 194.15 168.12 194.16 165.84C194.17 163.46 195.25 161.98 197.78 161.89C200.11 161.81 202.01 163.44 202.14 165.61C202.27 167.74 200.4 169.74 198.2 169.82L198.21 169.83Z" fill="fff"/>
<path d="M288.19 399.77C293.62 395.7 300.89 395.74 304.75 389.55C303.88 396.68 294.73 402.45 288.19 399.77Z" fill="fff"/>
<path d="M264.49 194.87C262.04 194.9 260.38 193.35 260.36 191.02C260.33 188.55 261.87 187.01 264.31 187.04C266.55 187.08 268.66 188.99 268.4 191.03C268.13 193.22 267.08 194.89 264.49 194.87Z" fill="fff"/>
<path d="M287.91 161.9C290.17 161.94 291.99 163.78 291.96 166C291.93 168.04 290.05 169.7 287.82 169.66C285.53 169.62 283.79 167.81 283.85 165.51C283.9 163.31 285.54 161.86 287.91 161.9Z" fill="fff"/>
<path d="M289.2 373.17C298.1 365.06 298.17 366.88 301.07 356.53C303.16 366.18 298.85 372.22 289.2 373.17Z" fill="fff"/>
<path d="M184.66 356.67C185.03 364.78 191.23 368.59 196.58 373.09C187.41 372.67 183.12 366.88 184.66 356.67Z" fill="fff"/>
<path d="M411.12 172.19C411.15 174.39 409.51 176.07 407.31 176.08C405.08 176.09 403.43 174.51 403.38 172.3C403.33 170.09 404.95 168.43 407.17 168.41C409.36 168.39 411.09 170.06 411.12 172.2V172.19Z" fill="fff"/>
<path d="M171.42 156.91C171.47 159.1 169.87 160.71 167.62 160.73C165.4 160.75 163.73 159.17 163.69 156.99C163.65 154.84 165.28 153.2 167.53 153.15C169.75 153.1 171.38 154.67 171.43 156.91H171.42Z" fill="fff"/>
<path d="M78.36 175.95C76.33 176.03 74.12 174.18 74.25 172.23C74.39 170.09 75.52 168.58 77.86 168.4C80.05 168.22 82.1 170.06 82.17 172.21C82.22 173.93 80.23 175.88 78.36 175.95Z" fill="fff"/>
<path d="M332.58 156.47C332.62 158.84 331.15 160.36 328.81 160.37C326.67 160.38 324.85 158.65 324.9 156.48C324.95 154.12 326.51 152.96 328.62 152.71C330.79 152.45 332.55 154.26 332.58 156.48V156.47Z" fill="fff"/>
<path d="M318.42 153.15C320.64 153.22 322.16 154.9 322.02 157.23C321.88 159.61 320.44 160.78 318.18 160.67C315.94 160.56 314.6 159.14 314.42 156.92C314.26 154.89 316.29 153.08 318.42 153.15Z" fill="fff"/>
<path d="M160.79 156.58C160.62 158.9 159.41 160.18 157.15 160.34C154.88 160.5 153.13 158.9 153.12 156.77C153.1 154.57 154.96 152.64 157.2 152.75C159.55 152.87 160.44 154.52 160.8 156.58H160.79Z" fill="fff"/>
<path d="M235.2 66.36C235.06 68.87 233.65 70.18 231.46 70.19C229.31 70.2 227.76 68.98 227.63 66.61C227.51 64.38 229.17 62.8 231.51 62.84C233.91 62.88 234.98 64.26 235.2 66.36Z" fill="fff"/>
<path d="M258.6 66.96C258.39 68.91 256.9 70.19 254.79 70.18C252.69 70.17 251.13 68.96 251.04 66.57C250.96 64.36 252.63 62.82 254.94 62.9C257.1 62.98 258.6 64.5 258.59 66.96H258.6Z" fill="fff"/>
<path d="M210.89 182.05C211.17 179.05 212.1 177.73 214.28 177.76C216.56 177.79 217.64 179.1 217.63 181.29C217.62 183.49 216.07 184.69 214.24 184.39C212.88 184.17 211.73 182.67 210.89 182.05Z" fill="fff"/>
<path d="M270.07 184.86C269.2 183.57 267.8 182.36 267.6 180.98C267.32 179.06 268.67 177.71 270.82 177.69C273.14 177.67 274.44 179.26 274.18 181.19C274 182.52 272.39 183.67 271.42 184.9L270.07 184.87V184.86Z" fill="fff"/>
<path d="M455.68 246.34C454.83 245.18 453.51 244.12 453.25 242.84C452.82 240.73 454.52 239.31 456.35 239.64C457.57 239.86 459.17 241.55 459.36 242.78C459.52 243.82 457.9 245.13 457.07 246.32L455.68 246.34Z" fill="fff"/>
<path d="M432.14 187.46C433.32 186.61 434.6 184.96 435.65 185.1C436.88 185.26 438.58 186.84 438.83 188.06C439.18 189.72 437.84 191.19 435.81 191.16C433.93 191.13 432.69 190.21 432.13 187.46H432.14Z" fill="fff"/>
<path d="M35.96 241.87C37.15 241.03 38.45 239.41 39.5 239.56C40.72 239.73 42.39 241.33 42.64 242.55C42.98 244.25 41.48 245.86 39.59 245.57C38.3 245.37 37.17 244.09 35.97 243.29V241.87H35.96Z" fill="fff"/>
<path d="M191.29 162.53C190.05 163.28 188.87 164.54 187.57 164.67C185.72 164.86 184.19 163.3 184.63 161.55C184.93 160.33 186.65 158.77 187.85 158.67C188.93 158.58 190.16 160.26 191.33 161.16L191.3 162.53H191.29Z" fill="fff"/>
<path d="M48.69 191.73C47.95 190.6 46.75 189.54 46.58 188.34C46.29 186.22 47.72 185.22 49.84 185.28C51.79 185.34 52.9 186.63 52.58 188.26C52.33 189.54 50.97 190.61 50.1 191.77L48.68 191.73H48.69Z" fill="fff"/>
<path d="M426.42 170.27C427.93 172.28 429.49 173.47 429.48 174.64C429.48 175.65 427.8 177.28 426.63 177.51C424.86 177.87 423.3 176.41 423.52 174.56C423.66 173.34 425 172.27 426.41 170.27H426.42Z" fill="fff"/>
<path d="M55.35 173.74C56.59 172.98 57.89 171.56 59.04 171.67C60.05 171.77 61.8 173.8 61.61 174.59C61.33 175.78 59.74 177.24 58.51 177.45C57.6 177.6 56.38 175.95 55.31 175.1L55.34 173.74H55.35Z" fill="fff"/>
<path d="M301.6 162.11C300.4 162.96 299.18 164.49 298 164.46C296.99 164.44 295.26 162.65 295.24 161.62C295.22 160.59 296.87 158.79 297.92 158.69C299.06 158.58 300.34 160.05 301.56 160.83L301.6 162.11Z" fill="fff"/>
<path d="M185.08 71.21C185.94 72.3 187.57 73.47 187.46 74.46C187.34 75.56 185.69 77.22 184.63 77.28C183.65 77.33 181.93 75.71 181.73 74.61C181.55 73.64 183.02 72.37 183.77 71.24L185.08 71.22V71.21Z" fill="fff"/>
<path d="M304.57 75.22C303.42 75.98 302.18 77.44 301.15 77.3C300.01 77.15 299.07 75.53 298.05 74.54C299.09 73.58 300.05 71.99 301.18 71.86C302.22 71.74 303.45 73.2 304.59 73.96C304.59 74.38 304.58 74.8 304.57 75.22Z" fill="fff"/>
<path d="M438.33 237.97C439.15 239.08 440.6 240.19 440.61 241.3C440.61 242.32 439.05 243.34 438.18 244.37C437.13 243.43 435.49 242.64 435.22 241.52C434.99 240.55 436.32 239.21 436.96 238.03L438.33 237.97Z" fill="fff"/>
<path d="M281.55 172.46C280.53 173.23 279.49 174.63 278.5 174.59C277.48 174.55 275.96 173.27 275.65 172.24C275.12 170.45 276.57 169.15 278.26 169.27C279.37 169.34 280.41 170.53 281.49 171.22L281.55 172.46Z" fill="fff"/>
<path d="M207.78 168.78C208.52 169.85 209.9 170.95 209.83 171.96C209.76 172.95 208.23 173.84 207.33 174.77C206.4 173.87 204.85 173.04 204.72 172.03C204.59 171.04 205.91 169.87 206.59 168.77H207.78V168.78Z" fill="fff"/>
<path d="M446.32 335.61C445.22 336.3 444.06 337.63 443.05 337.51C442.06 337.4 441.24 335.83 440.34 334.9C441.23 334.06 442.09 332.6 443.01 332.56C444.08 332.51 445.21 333.72 446.32 334.38C446.32 334.79 446.32 335.2 446.32 335.61Z" fill="fff"/>
<path d="M307.81 161.87C307.07 160.83 305.6 159.64 305.78 158.8C306 157.75 307.5 156.44 308.6 156.27C309.34 156.16 311.02 157.79 311.07 158.72C311.13 159.73 309.79 160.81 309.06 161.86H307.81V161.87Z" fill="fff"/>
<path d="M177.38 162.69C176.12 160.79 174.76 159.63 174.92 158.74C175.09 157.74 176.63 156.97 177.58 156.11C178.43 157.07 179.77 157.95 179.98 159.03C180.13 159.81 178.75 160.87 177.39 162.69H177.38Z" fill="fff"/>
<path d="M46.39 334.89C44.82 336.17 43.8 337.61 42.99 337.51C41.92 337.37 40.24 336.03 40.23 335.18C40.21 334.18 41.6 332.49 42.57 332.34C43.49 332.2 44.66 333.66 46.4 334.89H46.39Z" fill="fff"/>
<path d="M391.33 475.63C389.5 476.84 388.37 478.15 387.32 478.09C386.45 478.04 384.87 476.22 385.03 475.49C385.25 474.46 386.7 473.18 387.78 473.02C388.6 472.89 389.66 474.34 391.32 475.64L391.33 475.63Z" fill="fff"/>
<path d="M427.78 236.85C426.76 237.46 425.67 238.64 424.75 238.51C423.78 238.38 422.98 237 422.11 236.16C422.95 235.29 423.79 233.71 424.63 233.71C425.7 233.71 426.76 234.99 427.83 235.71C427.81 236.09 427.8 236.46 427.78 236.84V236.85Z" fill="fff"/>
<path d="M59.78 239.81C58.51 238.23 57.02 237.11 57.2 236.43C57.48 235.36 58.78 234.11 59.85 233.87C60.49 233.73 62.11 235.32 62.21 236.26C62.31 237.13 60.98 238.16 59.78 239.81Z" fill="fff"/>
<path d="M146.6 154.63C147.87 156.41 148.91 157.26 149.13 158.29C149.51 160.04 148.25 161.19 146.63 160.87C145.58 160.66 144.05 159.42 144.01 158.57C143.96 157.57 145.28 156.5 146.6 154.62V154.63Z" fill="fff"/>
<path d="M98.61 479.15C97.5 477.48 96.44 476.55 96.28 475.49C96.01 473.73 97.37 472.64 98.96 473.07C99.95 473.34 101.27 474.72 101.29 475.62C101.31 476.55 99.93 477.51 98.61 479.14V479.15Z" fill="fff"/>
<path d="M343.02 158.4C341.3 159.7 340.18 161.13 339.46 160.95C338.37 160.68 337.55 159.3 336.61 158.39C337.49 157.6 338.31 156.26 339.26 156.17C340.17 156.08 341.22 157.26 343.02 158.4Z" fill="fff"/>
<path d="M286.74 91.53C284.97 92.74 283.91 94.04 283.03 93.93C282.06 93.81 281.26 92.39 280.39 91.53C281.25 90.67 282.05 89.23 283 89.12C283.9 89.01 284.96 90.31 286.74 91.53Z" fill="fff"/>
<path d="M351.88 161.28C350.13 162.36 349.01 163.56 348.34 163.35C347.31 163.03 346.59 161.73 345.74 160.84C346.64 160.04 347.51 158.69 348.46 158.62C349.3 158.56 350.25 159.94 351.87 161.28H351.88Z" fill="fff"/>
<path d="M206.37 91.38C204.61 92.65 203.65 93.86 202.66 93.89C201.82 93.91 200.17 92.47 200.25 91.85C200.38 90.84 201.52 89.37 202.43 89.21C203.33 89.05 204.48 90.27 206.37 91.38Z" fill="fff"/>
<path d="M137.2 164.17C136.17 162.58 134.95 161.47 135.16 160.83C135.48 159.85 136.78 159.2 137.67 158.41C138.45 159.29 139.71 160.11 139.84 161.08C139.94 161.78 138.53 162.69 137.19 164.17H137.2Z" fill="fff"/>
<path d="M52.09 85.68C53.21 87.42 54.37 88.43 54.23 89.22C54.07 90.11 52.79 91.36 51.93 91.42C51.15 91.47 49.59 90.1 49.62 89.4C49.65 88.41 50.83 87.46 52.09 85.69V85.68Z" fill="fff"/>
<path d="M91.69 477.21C92.94 478.84 94.24 479.82 94.11 480.54C93.93 481.52 92.76 482.78 91.8 482.99C91.15 483.13 89.53 481.73 89.47 480.93C89.41 479.99 90.56 478.97 91.68 477.21H91.69Z" fill="fff"/>
<path d="M398.23 480.67C396.6 481.86 395.68 483.04 394.83 483C393.94 482.95 393.11 481.72 392.26 481C393.07 480.12 393.75 478.78 394.73 478.52C395.45 478.33 396.54 479.57 398.23 480.67Z" fill="fff"/>
<path d="M56.16 202.81C54.61 203.96 53.7 205.15 52.81 205.14C51.91 205.14 51.02 203.93 50.13 203.25C50.96 202.37 51.68 201.02 52.67 200.77C53.42 200.58 54.53 201.79 56.17 202.8L56.16 202.81Z" fill="fff"/>
<path d="M421.03 184.36C419.41 185.56 418.38 186.87 417.72 186.7C416.71 186.44 415.56 185.28 415.27 184.27C415.11 183.71 416.6 182.05 417.35 182.04C418.32 182.04 419.29 183.19 421.02 184.35L421.03 184.36Z" fill="fff"/>
<path d="M436.47 203.35C434.72 204.27 433.64 205.33 432.8 205.16C431.89 204.97 431.21 203.65 430.43 202.82C431.31 202.1 432.19 200.82 433.09 200.81C433.97 200.81 434.87 202.07 436.47 203.35Z" fill="fff"/>
<path d="M133 163.83C131.3 164.86 130.27 165.97 129.45 165.84C128.59 165.7 127.94 164.35 127.2 163.52C128.01 162.79 128.8 161.52 129.63 161.49C130.5 161.46 131.4 162.64 133 163.82V163.83Z" fill="fff"/>
<path d="M71.72 183.96C70.08 185.2 69.15 186.44 68.33 186.37C67.45 186.3 66.66 185.01 65.83 184.25C66.6 183.43 67.28 182.13 68.18 181.94C68.95 181.78 69.98 182.91 71.71 183.96H71.72Z" fill="fff"/>
<path d="M437.36 119.6C435.69 120.77 434.74 121.97 433.92 121.88C433.02 121.78 432.26 120.5 431.43 119.73C432.2 118.94 432.9 117.62 433.77 117.51C434.61 117.4 435.61 118.52 437.35 119.6H437.36Z" fill="fff"/>
<path d="M55.31 119.57C53.67 120.74 52.78 121.86 51.86 121.89C51.08 121.91 50.26 120.67 49.46 119.99C50.29 119.12 50.99 117.89 52.01 117.52C52.59 117.31 53.68 118.5 55.32 119.57H55.31Z" fill="fff"/>
<path d="M356.52 160.35C357.52 162.06 358.63 163.11 358.48 163.94C358.33 164.76 356.96 165.83 356.06 165.91C355.35 165.97 353.8 164.48 353.92 163.99C354.18 162.9 355.25 162.01 356.52 160.35Z" fill="fff"/>
<path d="M235.1 214.79C233.93 213.17 232.77 212.27 232.79 211.39C232.8 210.61 234.22 209.16 234.83 209.25C235.79 209.4 237.09 210.47 237.31 211.37C237.48 212.09 236.23 213.14 235.11 214.79H235.1Z" fill="fff"/>
<path d="M254.33 211.39C252.76 212.55 251.81 213.78 250.95 213.72C250.08 213.66 248.71 212.34 248.67 211.51C248.63 210.74 249.98 209.32 250.82 209.23C251.69 209.14 252.69 210.31 254.32 211.39H254.33Z" fill="fff"/>
<path d="M433.83 92.76C432.7 91.01 431.63 90.07 431.66 89.18C431.69 88.4 433.11 86.98 433.67 87.09C434.61 87.27 435.89 88.36 436.04 89.23C436.18 90.01 434.98 91.03 433.82 92.77L433.83 92.76Z" fill="fff"/>
<path d="M409.63 324.15C410.56 325.69 411.58 326.62 411.48 327.41C411.38 328.2 410.14 329.44 409.44 329.41C408.6 329.38 407.09 328.11 407.16 327.56C407.3 326.57 408.41 325.72 409.63 324.15Z" fill="fff"/>
<path d="M48.18 206.85C46.38 207.81 45.4 208.75 44.46 208.71C43.72 208.68 43.04 207.43 42.33 206.73C43.16 205.99 43.91 204.8 44.83 204.66C45.56 204.54 46.5 205.69 48.18 206.86V206.85Z" fill="fff"/>
<path d="M443.57 207.62C442.67 208.02 441.67 208.89 440.91 208.71C440.03 208.51 439.36 207.39 438.6 206.66C439.38 205.96 440.16 204.72 440.96 204.71C441.85 204.71 442.76 205.8 443.66 206.42L443.57 207.61V207.62Z" fill="fff"/>
<path d="M125.34 167.04C123.87 168.15 122.71 169.46 122.27 169.25C121.34 168.81 120.58 167.65 120.21 166.63C120.1 166.33 121.55 164.97 122.25 165C123.09 165.03 123.89 166.02 125.34 167.04Z" fill="fff"/>
<path d="M238.89 223.03C238.02 221.47 237 220.46 237.16 219.68C237.31 218.89 238.68 217.75 239.41 217.82C240.16 217.89 241.33 219.26 241.31 220.04C241.3 220.85 240.09 221.64 238.89 223.03Z" fill="fff"/>
<path d="M76.53 330.66C75.36 329.17 74.18 328.32 74.23 327.55C74.28 326.78 75.56 325.53 76.32 325.52C77.09 325.51 78.37 326.65 78.52 327.46C78.65 328.18 77.54 329.13 76.52 330.66H76.53Z" fill="fff"/>
<path d="M363.06 164.16C364.28 165.22 365.03 165.87 365.78 166.51C365.03 167.37 364.4 168.46 363.45 168.97C363.12 169.15 361.44 167.93 361.41 167.3C361.37 166.42 362.3 165.5 363.06 164.16Z" fill="fff"/>
<path d="M372.48 170.52C371.31 171.59 370.61 172.74 369.77 172.86C369.12 172.95 368.29 171.76 367.54 171.13C368.33 170.32 369.01 169.31 369.96 168.81C370.3 168.63 371.29 169.68 372.49 170.52H372.48Z" fill="fff"/>
<path d="M242.76 231.95C241.86 230.4 240.86 229.42 241.04 228.8C241.29 227.96 242.44 227.38 243.21 226.7C243.85 227.41 245.03 228.17 244.98 228.83C244.91 229.7 243.87 230.49 242.76 231.95Z" fill="fff"/>
<path d="M115.61 173.68C114.77 172.31 113.88 171.45 113.8 170.51C113.75 169.9 114.86 169.18 115.46 168.51C116.29 169.34 117.37 170.05 117.82 171.05C117.99 171.42 116.67 172.45 115.61 173.67V173.68Z" fill="fff"/>
<path d="M249.77 219.86C248.17 220.83 247.27 221.81 246.63 221.66C245.79 221.47 245.14 220.4 244.4 219.71C245.09 219.02 245.76 217.8 246.47 217.78C247.3 217.75 248.15 218.77 249.77 219.86Z" fill="fff"/>
<path d="M61.81 191.71C60.7 192.75 60.01 193.89 59.29 193.92C58.58 193.95 57.83 192.83 57.1 192.22C57.81 191.49 58.42 190.49 59.28 190.14C59.73 189.96 60.64 190.95 61.81 191.71Z" fill="fff"/>
<path d="M426.4 189.07C427.33 190.62 428.27 191.49 428.16 192.21C428.06 192.92 426.91 193.48 426.22 194.11C425.61 193.4 424.59 192.73 424.51 191.97C424.44 191.28 425.41 190.49 426.39 189.07H426.4Z" fill="fff"/>
<path d="M282.69 70.93C281.41 71.75 280.53 72.73 279.98 72.57C279.2 72.34 278.67 71.28 278.03 70.58C278.68 70 279.38 68.9 279.96 68.95C280.76 69.03 281.47 69.99 282.69 70.93Z" fill="fff"/>
<path d="M35.81 210.93C34.8 209.74 33.69 208.85 33.83 208.51C34.18 207.7 35.05 206.85 35.87 206.61C36.29 206.49 37.58 207.65 37.58 208.23C37.58 208.96 36.67 209.7 35.8 210.92L35.81 210.93Z" fill="fff"/>
<path d="M107.24 178.82C106.49 179.39 105.74 179.97 104.83 180.66C104.15 179.87 103.55 179.16 102.96 178.48C104.7 175.83 104.99 175.85 107.23 178.82H107.24Z" fill="fff"/>
<path d="M215.06 69.56C213.89 70.39 213.12 71.34 212.51 71.25C211.83 71.15 210.84 70.1 210.83 69.46C210.82 68.87 211.91 67.85 212.58 67.79C213.21 67.74 213.92 68.7 215.06 69.56Z" fill="fff"/>
<path d="M205.89 73.72C205.05 72.4 204.17 71.63 204.27 71.02C204.38 70.36 205.4 69.41 206.03 69.4C206.6 69.4 207.58 70.46 207.64 71.12C207.7 71.74 206.79 72.46 205.89 73.72Z" fill="fff"/>
<path d="M449.64 210.88C448.77 209.66 447.83 208.91 447.92 208.32C448.02 207.64 449.07 206.62 449.67 206.65C450.31 206.68 451.3 207.68 451.41 208.38C451.5 208.95 450.53 209.69 449.64 210.88Z" fill="fff"/>
<path d="M387.57 181.18C387.54 182.36 389.02 184.35 386.26 184.07C385.6 184 384.47 182.61 384.57 182C384.94 179.73 386.54 181.21 387.68 181.28L387.58 181.18H387.57Z" fill="fff"/>
<path d="M273.6 67.08C274.29 68.15 275.11 68.9 274.98 69.37C274.78 70.05 273.96 70.84 273.28 70.98C272.85 71.07 271.65 69.94 271.73 69.6C271.92 68.83 272.71 68.21 273.6 67.08Z" fill="fff"/>
<path d="M101.85 182.24C100.72 183.21 100.12 184.11 99.38 184.24C98.87 184.33 98.17 183.34 97.56 182.84C98.17 182.18 98.67 181.26 99.42 180.95C99.86 180.77 100.69 181.59 101.85 182.24Z" fill="fff"/>
<path d="M383.16 178.5C382.07 179.32 381.35 180.26 380.64 180.26C380.02 180.26 379.41 179.18 378.8 178.58C379.49 178.01 380.12 177.13 380.89 176.99C381.43 176.89 382.16 177.79 383.16 178.5Z" fill="fff"/>
<path d="M112.27 175.35C111.65 175.54 110.92 176.02 110.43 175.85C109.75 175.61 109.06 174.97 108.75 174.33C108.56 173.94 109.08 172.71 109.26 172.71C110.02 172.73 110.95 172.88 111.46 173.36C111.93 173.81 111.96 174.73 112.18 175.45L112.28 175.36L112.27 175.35Z" fill="fff"/>
<path d="M377.76 174.05C376.59 174.78 375.95 175.49 375.32 175.49C374.78 175.49 374.24 174.67 373.7 174.22C374.21 173.63 374.65 172.64 375.23 172.55C375.81 172.46 376.53 173.27 377.76 174.05Z" fill="fff"/>

</svg>